<svg width="373" height="435" viewBox="0 0 373 435" fill="none" xmlns="http://www.w3.org/2000/svg">
<g clip-path="url(#clip0_3_827)">
<g filter="url(#filter0_d_3_827)">
<rect width="372.003" height="434.149" rx="25.5486" fill="#181818"/>
</g>
<mask id="mask0_3_827" style="mask-type:luminance" maskUnits="userSpaceOnUse" x="0" y="0" width="373" height="435">
<rect width="372.003" height="434.149" rx="25.5486" fill="white"/>
</mask>
<g mask="url(#mask0_3_827)">
<path d="M37.0541 314.488L40.5696 304.95H41.5643L45.0662 314.488H44.0579L41.0602 306.19L38.0625 314.488H37.0541ZM38.662 311.913L38.9481 311.122H43.1586L43.4447 311.913H38.662ZM46.4022 314.488V304.677H47.356V314.488H46.4022ZM49.2178 314.488V304.677H50.1716V314.488H49.2178ZM58.0305 314.488V305.74H55.1691V304.95H61.8458V305.74H58.9843V314.488H58.0305ZM64.8661 314.652C64.2303 314.652 63.667 314.502 63.1765 314.202C62.6951 313.902 62.3135 313.484 62.0319 312.948C61.7594 312.403 61.6232 311.767 61.6232 311.041C61.6232 310.305 61.7594 309.669 62.0319 309.133C62.3045 308.597 62.686 308.184 63.1765 307.893C63.6761 307.593 64.2439 307.443 64.8798 307.443C65.552 307.443 66.1152 307.593 66.5694 307.893C67.0326 308.193 67.3824 308.583 67.6186 309.065C67.8638 309.546 67.9865 310.078 67.9865 310.659C67.9865 310.741 67.9865 310.832 67.9865 310.932C67.9865 311.023 67.9819 311.132 67.9728 311.259H62.3453V310.468H67.0599C67.0417 309.76 66.8237 309.215 66.4059 308.833C65.9971 308.452 65.4793 308.261 64.8525 308.261C64.4437 308.261 64.0622 308.352 63.7079 308.534C63.3627 308.715 63.0811 308.988 62.8631 309.351C62.6542 309.714 62.5497 310.173 62.5497 310.727V311.082C62.5497 311.699 62.6587 312.213 62.8767 312.621C63.0948 313.03 63.3809 313.334 63.7352 313.534C64.0895 313.734 64.4664 313.834 64.8661 313.834C65.3839 313.834 65.8109 313.72 66.147 313.493C66.4831 313.266 66.7238 312.944 66.8691 312.526H67.7957C67.6867 312.935 67.5005 313.303 67.237 313.63C66.9827 313.948 66.6557 314.197 66.256 314.379C65.8563 314.561 65.393 314.652 64.8661 314.652ZM68.5153 314.488L70.8045 311.041L68.5153 307.607H69.5373L71.4585 310.537L73.3798 307.607H74.4017L72.1262 311.041L74.4017 314.488H73.3798L71.4585 311.545L69.5509 314.488H68.5153ZM77.7719 314.652C77.2178 314.652 76.7545 314.552 76.382 314.352C76.0187 314.152 75.7462 313.893 75.5645 313.575C75.3919 313.248 75.3056 312.898 75.3056 312.526C75.3056 312.044 75.4237 311.645 75.6599 311.327C75.9051 311 76.2458 310.755 76.6818 310.591C77.1178 310.418 77.622 310.332 78.1943 310.332H80.0474C80.0474 309.887 79.9793 309.51 79.843 309.201C79.7159 308.892 79.5206 308.661 79.2571 308.506C78.9937 308.343 78.6621 308.261 78.2624 308.261C77.7901 308.261 77.3858 308.379 77.0497 308.615C76.7227 308.842 76.5228 309.183 76.4502 309.637H75.4419C75.4964 309.156 75.6599 308.752 75.9324 308.425C76.214 308.097 76.5592 307.852 76.968 307.689C77.3767 307.525 77.8082 307.443 78.2624 307.443C78.8892 307.443 79.4025 307.562 79.8022 307.798C80.2109 308.034 80.5107 308.365 80.7015 308.792C80.9013 309.21 81.0012 309.692 81.0012 310.237V314.488H80.1428L80.0883 313.234C79.9975 313.416 79.8839 313.593 79.7476 313.766C79.6114 313.938 79.4479 314.093 79.2571 314.229C79.0754 314.356 78.862 314.456 78.6167 314.529C78.3714 314.611 78.0898 314.652 77.7719 314.652ZM77.8809 313.82C78.217 313.82 78.5168 313.752 78.7802 313.616C79.0527 313.471 79.2798 313.284 79.4615 313.057C79.6523 312.83 79.7976 312.571 79.8975 312.281C79.9975 311.99 80.0474 311.695 80.0474 311.395V311.136H78.2761C77.7855 311.136 77.3949 311.195 77.1042 311.313C76.8226 311.431 76.6182 311.595 76.4911 311.804C76.3639 312.004 76.3003 312.235 76.3003 312.499C76.3003 312.753 76.3593 312.98 76.4774 313.18C76.6046 313.38 76.7863 313.539 77.0225 313.657C77.2586 313.766 77.5448 313.82 77.8809 313.82ZM85.2525 314.652C84.7075 314.652 84.226 314.561 83.8082 314.379C83.3994 314.197 83.0678 313.938 82.8135 313.602C82.5682 313.257 82.4183 312.848 82.3638 312.376H83.3585C83.4039 312.639 83.5039 312.88 83.6583 313.098C83.8218 313.316 84.0398 313.493 84.3123 313.63C84.5848 313.757 84.9073 313.82 85.2798 313.82C85.625 313.82 85.9066 313.77 86.1246 313.67C86.3517 313.561 86.5197 313.416 86.6287 313.234C86.7468 313.053 86.8059 312.857 86.8059 312.649C86.8059 312.34 86.7377 312.104 86.6015 311.94C86.4652 311.767 86.2654 311.64 86.0019 311.558C85.7385 311.477 85.416 311.399 85.0345 311.327C84.7256 311.272 84.4304 311.2 84.1488 311.109C83.8672 311.018 83.6129 310.9 83.3858 310.755C83.1678 310.609 82.9952 310.428 82.868 310.21C82.7408 309.982 82.6772 309.714 82.6772 309.406C82.6772 309.015 82.7726 308.674 82.9634 308.384C83.1632 308.093 83.4448 307.866 83.8082 307.702C84.1715 307.53 84.5985 307.443 85.089 307.443C85.7885 307.443 86.3608 307.621 86.8059 307.975C87.2601 308.32 87.5235 308.824 87.5962 309.487H86.6287C86.5924 309.115 86.438 308.82 86.1655 308.602C85.8929 308.384 85.525 308.275 85.0618 308.275C84.6076 308.275 84.2578 308.37 84.0126 308.561C83.7764 308.752 83.6583 309.006 83.6583 309.324C83.6583 309.515 83.7173 309.687 83.8354 309.842C83.9626 309.987 84.1534 310.114 84.4077 310.223C84.6621 310.332 84.9709 310.418 85.3343 310.482C85.7794 310.564 86.1836 310.673 86.547 310.809C86.9194 310.936 87.2192 311.136 87.4463 311.409C87.6734 311.672 87.7869 312.054 87.7869 312.553C87.796 312.962 87.6961 313.325 87.4872 313.643C87.2782 313.961 86.983 314.211 86.6015 314.393C86.229 314.565 85.7794 314.652 85.2525 314.652ZM95.5535 314.652C95.0357 314.652 94.5815 314.552 94.1909 314.352C93.8003 314.143 93.496 313.829 93.278 313.412C93.06 312.985 92.9509 312.444 92.9509 311.79V307.607H93.9048V311.681C93.9048 312.408 94.0637 312.948 94.3817 313.303C94.6996 313.648 95.1493 313.82 95.7306 313.82C96.1394 313.82 96.5028 313.725 96.8207 313.534C97.1386 313.343 97.3885 313.062 97.5701 312.689C97.7609 312.317 97.8563 311.858 97.8563 311.313V307.607H98.8101V314.488H97.9517L97.8835 313.262C97.6746 313.707 97.3612 314.052 96.9433 314.297C96.5346 314.533 96.0713 314.652 95.5535 314.652ZM100.666 314.488V307.607H101.538L101.593 308.82C101.811 308.384 102.124 308.048 102.533 307.811C102.951 307.566 103.414 307.443 103.923 307.443C104.45 307.443 104.909 307.548 105.299 307.757C105.69 307.957 105.994 308.27 106.212 308.697C106.43 309.115 106.539 309.651 106.539 310.305V314.488H105.585V310.414C105.585 309.687 105.426 309.151 105.108 308.806C104.79 308.452 104.336 308.275 103.746 308.275C103.346 308.275 102.983 308.37 102.656 308.561C102.338 308.752 102.083 309.033 101.893 309.406C101.711 309.778 101.62 310.237 101.62 310.782V314.488H100.666ZM108.409 314.488V307.607H109.362V314.488H108.409ZM108.885 305.985C108.695 305.985 108.531 305.922 108.395 305.795C108.259 305.658 108.191 305.49 108.191 305.291C108.191 305.082 108.254 304.918 108.381 304.8C108.518 304.673 108.686 304.609 108.885 304.609C109.067 304.609 109.226 304.673 109.362 304.8C109.499 304.918 109.567 305.082 109.567 305.291C109.567 305.49 109.499 305.658 109.362 305.795C109.235 305.922 109.076 305.985 108.885 305.985ZM113.957 314.488C113.566 314.488 113.23 314.429 112.949 314.311C112.667 314.184 112.449 313.979 112.295 313.698C112.149 313.407 112.077 313.012 112.077 312.512V308.425H110.864V307.607H112.077L112.199 305.985H113.03V307.607H115.088V308.425H113.03V312.512C113.03 312.966 113.121 313.275 113.303 313.439C113.485 313.593 113.803 313.67 114.257 313.67H114.979V314.488H113.957ZM119.006 314.652C118.461 314.652 117.979 314.561 117.562 314.379C117.153 314.197 116.821 313.938 116.567 313.602C116.322 313.257 116.172 312.848 116.117 312.376H117.112C117.157 312.639 117.257 312.88 117.412 313.098C117.575 313.316 117.793 313.493 118.066 313.63C118.338 313.757 118.661 313.82 119.033 313.82C119.378 313.82 119.66 313.77 119.878 313.67C120.105 313.561 120.273 313.416 120.382 313.234C120.5 313.053 120.559 312.857 120.559 312.649C120.559 312.34 120.491 312.104 120.355 311.94C120.219 311.767 120.019 311.64 119.755 311.558C119.492 311.477 119.169 311.399 118.788 311.327C118.479 311.272 118.184 311.2 117.902 311.109C117.621 311.018 117.366 310.9 117.139 310.755C116.921 310.609 116.749 310.428 116.621 310.21C116.494 309.982 116.431 309.714 116.431 309.406C116.431 309.015 116.526 308.674 116.717 308.384C116.917 308.093 117.198 307.866 117.562 307.702C117.925 307.53 118.352 307.443 118.842 307.443C119.542 307.443 120.114 307.621 120.559 307.975C121.013 308.32 121.277 308.824 121.35 309.487H120.382C120.346 309.115 120.191 308.82 119.919 308.602C119.646 308.384 119.278 308.275 118.815 308.275C118.361 308.275 118.011 308.37 117.766 308.561C117.53 308.752 117.412 309.006 117.412 309.324C117.412 309.515 117.471 309.687 117.589 309.842C117.716 309.987 117.907 310.114 118.161 310.223C118.415 310.332 118.724 310.418 119.088 310.482C119.533 310.564 119.937 310.673 120.3 310.809C120.673 310.936 120.973 311.136 121.2 311.409C121.427 311.672 121.54 312.054 121.54 312.553C121.549 312.962 121.45 313.325 121.241 313.643C121.032 313.961 120.736 314.211 120.355 314.393C119.982 314.565 119.533 314.652 119.006 314.652ZM126.827 314.488V304.677H127.781V308.833C128.017 308.397 128.344 308.057 128.762 307.811C129.189 307.566 129.648 307.443 130.138 307.443C130.665 307.443 131.119 307.548 131.501 307.757C131.882 307.966 132.177 308.284 132.386 308.711C132.604 309.129 132.713 309.664 132.713 310.319V314.488H131.773V310.428C131.773 309.701 131.619 309.16 131.31 308.806C131.01 308.452 130.565 308.275 129.975 308.275C129.566 308.275 129.193 308.375 128.857 308.574C128.53 308.774 128.267 309.065 128.067 309.446C127.876 309.819 127.781 310.273 127.781 310.809V314.488H126.827ZM136.64 314.652C136.086 314.652 135.623 314.552 135.25 314.352C134.887 314.152 134.614 313.893 134.433 313.575C134.26 313.248 134.174 312.898 134.174 312.526C134.174 312.044 134.292 311.645 134.528 311.327C134.773 311 135.114 310.755 135.55 310.591C135.986 310.418 136.49 310.332 137.062 310.332H138.916C138.916 309.887 138.847 309.51 138.711 309.201C138.584 308.892 138.389 308.661 138.125 308.506C137.862 308.343 137.53 308.261 137.131 308.261C136.658 308.261 136.254 308.379 135.918 308.615C135.591 308.842 135.391 309.183 135.318 309.637H134.31C134.365 309.156 134.528 308.752 134.801 308.425C135.082 308.097 135.427 307.852 135.836 307.689C136.245 307.525 136.676 307.443 137.131 307.443C137.757 307.443 138.271 307.562 138.67 307.798C139.079 308.034 139.379 308.365 139.57 308.792C139.77 309.21 139.869 309.692 139.869 310.237V314.488H139.011L138.956 313.234C138.866 313.416 138.752 313.593 138.616 313.766C138.48 313.938 138.316 314.093 138.125 314.229C137.944 314.356 137.73 314.456 137.485 314.529C137.24 314.611 136.958 314.652 136.64 314.652ZM136.749 313.82C137.085 313.82 137.385 313.752 137.648 313.616C137.921 313.471 138.148 313.284 138.33 313.057C138.52 312.83 138.666 312.571 138.766 312.281C138.866 311.99 138.916 311.695 138.916 311.395V311.136H137.144C136.654 311.136 136.263 311.195 135.972 311.313C135.691 311.431 135.486 311.595 135.359 311.804C135.232 312.004 135.168 312.235 135.168 312.499C135.168 312.753 135.228 312.98 135.346 313.18C135.473 313.38 135.654 313.539 135.891 313.657C136.127 313.766 136.413 313.82 136.749 313.82ZM143.364 314.488L140.734 307.607H141.729L143.909 313.561L146.103 307.607H147.084L144.454 314.488H143.364ZM150.912 314.652C150.276 314.652 149.713 314.502 149.222 314.202C148.741 313.902 148.359 313.484 148.077 312.948C147.805 312.403 147.669 311.767 147.669 311.041C147.669 310.305 147.805 309.669 148.077 309.133C148.35 308.597 148.731 308.184 149.222 307.893C149.722 307.593 150.289 307.443 150.925 307.443C151.597 307.443 152.161 307.593 152.615 307.893C153.078 308.193 153.428 308.583 153.664 309.065C153.909 309.546 154.032 310.078 154.032 310.659C154.032 310.741 154.032 310.832 154.032 310.932C154.032 311.023 154.027 311.132 154.018 311.259H148.391V310.468H153.105C153.087 309.76 152.869 309.215 152.451 308.833C152.043 308.452 151.525 308.261 150.898 308.261C150.489 308.261 150.108 308.352 149.753 308.534C149.408 308.715 149.127 308.988 148.909 309.351C148.7 309.714 148.595 310.173 148.595 310.727V311.082C148.595 311.699 148.704 312.213 148.922 312.621C149.14 313.03 149.426 313.334 149.781 313.534C150.135 313.734 150.512 313.834 150.912 313.834C151.429 313.834 151.856 313.72 152.192 313.493C152.529 313.266 152.769 312.944 152.915 312.526H153.841C153.732 312.935 153.546 313.303 153.283 313.63C153.028 313.948 152.701 314.197 152.301 314.379C151.902 314.561 151.439 314.652 150.912 314.652ZM162.227 314.652C161.591 314.652 161.019 314.506 160.51 314.216C160.011 313.916 159.615 313.493 159.325 312.948C159.034 312.403 158.889 311.772 158.889 311.054C158.889 310.309 159.034 309.669 159.325 309.133C159.625 308.597 160.029 308.184 160.537 307.893C161.046 307.593 161.614 307.443 162.241 307.443C162.895 307.443 163.472 307.593 163.971 307.893C164.471 308.184 164.866 308.597 165.157 309.133C165.447 309.669 165.593 310.309 165.593 311.054C165.593 311.781 165.443 312.417 165.143 312.962C164.852 313.498 164.453 313.916 163.944 314.216C163.444 314.506 162.872 314.652 162.227 314.652ZM162.227 313.834C162.654 313.834 163.045 313.73 163.399 313.521C163.762 313.312 164.053 313.003 164.271 312.594C164.498 312.176 164.612 311.658 164.612 311.041C164.612 310.423 164.503 309.91 164.285 309.501C164.067 309.092 163.776 308.783 163.413 308.574C163.058 308.365 162.672 308.261 162.254 308.261C161.837 308.261 161.446 308.365 161.083 308.574C160.719 308.783 160.424 309.092 160.197 309.501C159.979 309.91 159.87 310.423 159.87 311.041C159.87 311.658 159.979 312.176 160.197 312.594C160.415 313.003 160.701 313.312 161.055 313.521C161.419 313.73 161.809 313.834 162.227 313.834ZM167.141 317.486V307.607H168.013L168.094 308.847C168.24 308.602 168.43 308.37 168.667 308.152C168.903 307.934 169.184 307.761 169.511 307.634C169.848 307.507 170.229 307.443 170.656 307.443C171.319 307.443 171.896 307.602 172.387 307.92C172.886 308.229 173.272 308.656 173.545 309.201C173.817 309.746 173.953 310.368 173.953 311.068C173.953 311.758 173.813 312.376 173.531 312.921C173.259 313.457 172.877 313.879 172.387 314.188C171.896 314.497 171.315 314.652 170.642 314.652C170.07 314.652 169.561 314.529 169.116 314.284C168.671 314.029 168.331 313.67 168.094 313.207V317.486H167.141ZM170.574 313.82C171.047 313.82 171.46 313.707 171.814 313.48C172.178 313.244 172.464 312.921 172.673 312.512C172.882 312.094 172.986 311.604 172.986 311.041C172.986 310.487 172.882 310.001 172.673 309.583C172.464 309.165 172.178 308.842 171.814 308.615C171.46 308.388 171.047 308.275 170.574 308.275C170.102 308.275 169.684 308.388 169.321 308.615C168.957 308.842 168.671 309.165 168.462 309.583C168.262 309.991 168.162 310.477 168.162 311.041C168.162 311.604 168.262 312.094 168.462 312.512C168.671 312.921 168.957 313.244 169.321 313.48C169.684 313.707 170.102 313.82 170.574 313.82ZM178.448 314.652C177.812 314.652 177.249 314.502 176.759 314.202C176.277 313.902 175.896 313.484 175.614 312.948C175.342 312.403 175.205 311.767 175.205 311.041C175.205 310.305 175.342 309.669 175.614 309.133C175.887 308.597 176.268 308.184 176.759 307.893C177.258 307.593 177.826 307.443 178.462 307.443C179.134 307.443 179.697 307.593 180.151 307.893C180.615 308.193 180.964 308.583 181.201 309.065C181.446 309.546 181.569 310.078 181.569 310.659C181.569 310.741 181.569 310.832 181.569 310.932C181.569 311.023 181.564 311.132 181.555 311.259H175.927V310.468H180.642C180.624 309.76 180.406 309.215 179.988 308.833C179.579 308.452 179.061 308.261 178.435 308.261C178.026 308.261 177.644 308.352 177.29 308.534C176.945 308.715 176.663 308.988 176.445 309.351C176.236 309.714 176.132 310.173 176.132 310.727V311.082C176.132 311.699 176.241 312.213 176.459 312.621C176.677 313.03 176.963 313.334 177.317 313.534C177.672 313.734 178.049 313.834 178.448 313.834C178.966 313.834 179.393 313.72 179.729 313.493C180.065 313.266 180.306 312.944 180.451 312.526H181.378C181.269 312.935 181.083 313.303 180.819 313.63C180.565 313.948 180.238 314.197 179.838 314.379C179.438 314.561 178.975 314.652 178.448 314.652ZM183.045 314.488V307.607H183.917L183.985 308.929C184.13 308.611 184.325 308.343 184.571 308.125C184.825 307.898 185.125 307.73 185.47 307.621C185.815 307.502 186.21 307.443 186.655 307.443V308.438H186.26C185.97 308.438 185.688 308.474 185.415 308.547C185.143 308.62 184.902 308.747 184.693 308.929C184.484 309.11 184.316 309.356 184.189 309.664C184.062 309.973 183.998 310.359 183.998 310.823V314.488H183.045ZM190.09 314.652C189.536 314.652 189.072 314.552 188.7 314.352C188.337 314.152 188.064 313.893 187.882 313.575C187.71 313.248 187.624 312.898 187.624 312.526C187.624 312.044 187.742 311.645 187.978 311.327C188.223 311 188.564 310.755 189 310.591C189.436 310.418 189.94 310.332 190.512 310.332H192.365C192.365 309.887 192.297 309.51 192.161 309.201C192.034 308.892 191.839 308.661 191.575 308.506C191.312 308.343 190.98 308.261 190.58 308.261C190.108 308.261 189.704 308.379 189.368 308.615C189.041 308.842 188.841 309.183 188.768 309.637H187.76C187.814 309.156 187.978 308.752 188.25 308.425C188.532 308.097 188.877 307.852 189.286 307.689C189.695 307.525 190.126 307.443 190.58 307.443C191.207 307.443 191.72 307.562 192.12 307.798C192.529 308.034 192.829 308.365 193.019 308.792C193.219 309.21 193.319 309.692 193.319 310.237V314.488H192.461L192.406 313.234C192.315 313.416 192.202 313.593 192.066 313.766C191.929 313.938 191.766 314.093 191.575 314.229C191.393 314.356 191.18 314.456 190.935 314.529C190.689 314.611 190.408 314.652 190.09 314.652ZM190.199 313.82C190.535 313.82 190.835 313.752 191.098 313.616C191.371 313.471 191.598 313.284 191.779 313.057C191.97 312.83 192.116 312.571 192.216 312.281C192.315 311.99 192.365 311.695 192.365 311.395V311.136H190.594C190.104 311.136 189.713 311.195 189.422 311.313C189.141 311.431 188.936 311.595 188.809 311.804C188.682 312.004 188.618 312.235 188.618 312.499C188.618 312.753 188.677 312.98 188.795 313.18C188.923 313.38 189.104 313.539 189.34 313.657C189.577 313.766 189.863 313.82 190.199 313.82ZM197.453 314.488C197.062 314.488 196.726 314.429 196.445 314.311C196.163 314.184 195.945 313.979 195.791 313.698C195.645 313.407 195.573 313.012 195.573 312.512V308.425H194.36V307.607H195.573L195.695 305.985H196.526V307.607H198.584V308.425H196.526V312.512C196.526 312.966 196.617 313.275 196.799 313.439C196.981 313.593 197.299 313.67 197.753 313.67H198.475V314.488H197.453ZM202.738 314.652C202.102 314.652 201.539 314.502 201.048 314.202C200.567 313.902 200.185 313.484 199.904 312.948C199.631 312.403 199.495 311.767 199.495 311.041C199.495 310.305 199.631 309.669 199.904 309.133C200.176 308.597 200.558 308.184 201.048 307.893C201.548 307.593 202.116 307.443 202.752 307.443C203.424 307.443 203.987 307.593 204.441 307.893C204.905 308.193 205.254 308.583 205.49 309.065C205.736 309.546 205.858 310.078 205.858 310.659C205.858 310.741 205.858 310.832 205.858 310.932C205.858 311.023 205.854 311.132 205.845 311.259H200.217V310.468H204.932C204.914 309.76 204.696 309.215 204.278 308.833C203.869 308.452 203.351 308.261 202.724 308.261C202.316 308.261 201.934 308.352 201.58 308.534C201.235 308.715 200.953 308.988 200.735 309.351C200.526 309.714 200.422 310.173 200.422 310.727V311.082C200.422 311.699 200.531 312.213 200.749 312.621C200.967 313.03 201.253 313.334 201.607 313.534C201.961 313.734 202.338 313.834 202.738 313.834C203.256 313.834 203.683 313.72 204.019 313.493C204.355 313.266 204.596 312.944 204.741 312.526H205.668C205.559 312.935 205.372 313.303 205.109 313.63C204.855 313.948 204.528 314.197 204.128 314.379C203.728 314.561 203.265 314.652 202.738 314.652ZM210.332 314.652C209.66 314.652 209.078 314.497 208.588 314.188C208.097 313.87 207.716 313.439 207.443 312.894C207.171 312.349 207.035 311.727 207.035 311.027C207.035 310.337 207.171 309.724 207.443 309.188C207.716 308.643 208.102 308.216 208.602 307.907C209.101 307.598 209.683 307.443 210.346 307.443C210.927 307.443 211.436 307.571 211.872 307.825C212.308 308.07 212.644 308.42 212.88 308.874V304.677H213.834V314.488H212.975L212.894 313.234C212.748 313.48 212.558 313.711 212.321 313.929C212.085 314.138 211.804 314.311 211.477 314.447C211.15 314.583 210.768 314.652 210.332 314.652ZM210.414 313.82C210.895 313.82 211.313 313.707 211.667 313.48C212.031 313.244 212.312 312.921 212.512 312.512C212.721 312.094 212.826 311.604 212.826 311.041C212.826 310.487 212.721 310.001 212.512 309.583C212.312 309.165 212.031 308.842 211.667 308.615C211.313 308.388 210.895 308.275 210.414 308.275C209.941 308.275 209.524 308.388 209.16 308.615C208.797 308.842 208.511 309.165 208.302 309.583C208.102 309.991 208.002 310.477 208.002 311.041C208.002 311.604 208.106 312.094 208.315 312.512C208.524 312.93 208.81 313.253 209.174 313.48C209.537 313.707 209.95 313.82 210.414 313.82ZM221.573 314.652C221.019 314.652 220.556 314.552 220.183 314.352C219.82 314.152 219.547 313.893 219.366 313.575C219.193 313.248 219.107 312.898 219.107 312.526C219.107 312.044 219.225 311.645 219.461 311.327C219.706 311 220.047 310.755 220.483 310.591C220.919 310.418 221.423 310.332 221.996 310.332H223.849C223.849 309.887 223.781 309.51 223.644 309.201C223.517 308.892 223.322 308.661 223.058 308.506C222.795 308.343 222.463 308.261 222.064 308.261C221.591 308.261 221.187 308.379 220.851 308.615C220.524 308.842 220.324 309.183 220.251 309.637H219.243C219.298 309.156 219.461 308.752 219.734 308.425C220.015 308.097 220.36 307.852 220.769 307.689C221.178 307.525 221.61 307.443 222.064 307.443C222.691 307.443 223.204 307.562 223.603 307.798C224.012 308.034 224.312 308.365 224.503 308.792C224.703 309.21 224.803 309.692 224.803 310.237V314.488H223.944L223.89 313.234C223.799 313.416 223.685 313.593 223.549 313.766C223.413 313.938 223.249 314.093 223.058 314.229C222.877 314.356 222.663 314.456 222.418 314.529C222.173 314.611 221.891 314.652 221.573 314.652ZM221.682 313.82C222.018 313.82 222.318 313.752 222.582 313.616C222.854 313.471 223.081 313.284 223.263 313.057C223.454 312.83 223.599 312.571 223.699 312.281C223.799 311.99 223.849 311.695 223.849 311.395V311.136H222.077C221.587 311.136 221.196 311.195 220.906 311.313C220.624 311.431 220.42 311.595 220.292 311.804C220.165 312.004 220.102 312.235 220.102 312.499C220.102 312.753 220.161 312.98 220.279 313.18C220.406 313.38 220.588 313.539 220.824 313.657C221.06 313.766 221.346 313.82 221.682 313.82ZM228.936 314.488C228.546 314.488 228.21 314.429 227.928 314.311C227.646 314.184 227.428 313.979 227.274 313.698C227.129 313.407 227.056 313.012 227.056 312.512V308.425H225.843V307.607H227.056L227.179 305.985H228.01V307.607H230.067V308.425H228.01V312.512C228.01 312.966 228.101 313.275 228.282 313.439C228.464 313.593 228.782 313.67 229.236 313.67H229.958V314.488H228.936ZM237.339 314.652C236.785 314.652 236.321 314.552 235.949 314.352C235.586 314.152 235.313 313.893 235.131 313.575C234.959 313.248 234.873 312.898 234.873 312.526C234.873 312.044 234.991 311.645 235.227 311.327C235.472 311 235.813 310.755 236.249 310.591C236.685 310.418 237.189 310.332 237.761 310.332H239.614C239.614 309.887 239.546 309.51 239.41 309.201C239.283 308.892 239.087 308.661 238.824 308.506C238.561 308.343 238.229 308.261 237.829 308.261C237.357 308.261 236.953 308.379 236.617 308.615C236.29 308.842 236.09 309.183 236.017 309.637H235.009C235.063 309.156 235.227 308.752 235.499 308.425C235.781 308.097 236.126 307.852 236.535 307.689C236.944 307.525 237.375 307.443 237.829 307.443C238.456 307.443 238.969 307.562 239.369 307.798C239.778 308.034 240.078 308.365 240.268 308.792C240.468 309.21 240.568 309.692 240.568 310.237V314.488H239.71L239.655 313.234C239.564 313.416 239.451 313.593 239.315 313.766C239.178 313.938 239.015 314.093 238.824 314.229C238.642 314.356 238.429 314.456 238.184 314.529C237.938 314.611 237.657 314.652 237.339 314.652ZM237.448 313.82C237.784 313.82 238.084 313.752 238.347 313.616C238.62 313.471 238.847 313.284 239.028 313.057C239.219 312.83 239.365 312.571 239.464 312.281C239.564 311.99 239.614 311.695 239.614 311.395V311.136H237.843C237.352 311.136 236.962 311.195 236.671 311.313C236.39 311.431 236.185 311.595 236.058 311.804C235.931 312.004 235.867 312.235 235.867 312.499C235.867 312.753 235.926 312.98 236.044 313.18C236.172 313.38 236.353 313.539 236.589 313.657C236.826 313.766 237.112 313.82 237.448 313.82ZM247.124 314.488V306.013L245.489 306.449V305.781L247.424 304.95H248.091V314.488H247.124ZM253.711 314.652C252.875 314.652 252.162 314.447 251.572 314.038C250.99 313.621 250.541 313.044 250.223 312.308C249.905 311.563 249.746 310.7 249.746 309.719C249.746 308.738 249.905 307.879 250.223 307.144C250.541 306.399 250.99 305.822 251.572 305.413C252.162 304.995 252.871 304.786 253.697 304.786C254.524 304.786 255.228 304.995 255.809 305.413C256.4 305.822 256.85 306.399 257.158 307.144C257.476 307.879 257.635 308.738 257.635 309.719C257.635 310.7 257.476 311.563 257.158 312.308C256.85 313.044 256.4 313.621 255.809 314.038C255.228 314.447 254.529 314.652 253.711 314.652ZM253.697 313.82C254.27 313.82 254.778 313.657 255.224 313.33C255.669 313.003 256.018 312.535 256.273 311.926C256.527 311.309 256.654 310.573 256.654 309.719C256.654 308.865 256.527 308.134 256.273 307.525C256.018 306.917 255.669 306.449 255.224 306.122C254.778 305.795 254.27 305.631 253.697 305.631C253.134 305.631 252.626 305.795 252.171 306.122C251.726 306.449 251.372 306.917 251.109 307.525C250.854 308.134 250.727 308.865 250.727 309.719C250.727 310.573 250.854 311.309 251.109 311.926C251.372 312.535 251.726 313.003 252.171 313.33C252.626 313.657 253.134 313.82 253.697 313.82ZM260.081 314.488L265.681 304.95H266.635L261.048 314.488H260.081ZM265.872 314.652C265.472 314.652 265.109 314.561 264.782 314.379C264.464 314.197 264.21 313.938 264.019 313.602C263.837 313.257 263.746 312.857 263.746 312.403C263.746 311.94 263.842 311.54 264.032 311.204C264.223 310.868 264.482 310.609 264.809 310.428C265.136 310.246 265.495 310.155 265.886 310.155C266.285 310.155 266.644 310.246 266.962 310.428C267.28 310.609 267.53 310.868 267.711 311.204C267.902 311.54 267.998 311.94 267.998 312.403C267.998 312.857 267.902 313.257 267.711 313.602C267.53 313.938 267.275 314.197 266.948 314.379C266.63 314.561 266.272 314.652 265.872 314.652ZM265.872 313.888C266.108 313.888 266.322 313.834 266.512 313.725C266.703 313.616 266.858 313.452 266.976 313.234C267.103 313.007 267.166 312.73 267.166 312.403C267.166 312.067 267.103 311.79 266.976 311.572C266.858 311.354 266.703 311.191 266.512 311.082C266.322 310.973 266.113 310.918 265.886 310.918C265.668 310.918 265.459 310.973 265.259 311.082C265.059 311.191 264.895 311.354 264.768 311.572C264.65 311.79 264.591 312.067 264.591 312.403C264.591 312.73 264.65 313.007 264.768 313.234C264.886 313.452 265.045 313.616 265.245 313.725C265.445 313.834 265.654 313.888 265.872 313.888ZM260.926 309.297C260.526 309.297 260.163 309.206 259.836 309.024C259.518 308.842 259.263 308.583 259.073 308.247C258.891 307.902 258.8 307.502 258.8 307.048C258.8 306.585 258.896 306.185 259.086 305.849C259.277 305.513 259.536 305.254 259.863 305.073C260.19 304.891 260.553 304.8 260.953 304.8C261.344 304.8 261.698 304.891 262.016 305.073C262.343 305.254 262.597 305.513 262.779 305.849C262.961 306.185 263.051 306.585 263.051 307.048C263.051 307.502 262.956 307.902 262.765 308.247C262.584 308.583 262.329 308.842 262.002 309.024C261.684 309.206 261.325 309.297 260.926 309.297ZM260.939 308.534C261.166 308.534 261.375 308.479 261.566 308.37C261.757 308.261 261.911 308.097 262.029 307.879C262.157 307.652 262.22 307.375 262.22 307.048C262.22 306.712 262.157 306.435 262.029 306.217C261.911 305.999 261.757 305.836 261.566 305.727C261.375 305.608 261.171 305.549 260.953 305.549C260.726 305.549 260.512 305.608 260.313 305.727C260.113 305.836 259.949 305.999 259.822 306.217C259.704 306.435 259.645 306.712 259.645 307.048C259.645 307.375 259.704 307.652 259.822 307.879C259.94 308.097 260.099 308.261 260.299 308.37C260.499 308.479 260.712 308.534 260.939 308.534ZM37.5719 332.488V322.677H38.5257V326.833C38.7619 326.397 39.089 326.057 39.5068 325.811C39.9338 325.566 40.3925 325.443 40.883 325.443C41.4099 325.443 41.8641 325.548 42.2456 325.757C42.6271 325.966 42.9224 326.284 43.1313 326.711C43.3493 327.129 43.4583 327.664 43.4583 328.319V332.488H42.5181V328.428C42.5181 327.701 42.3637 327.16 42.0549 326.806C41.7551 326.452 41.31 326.275 40.7195 326.275C40.3107 326.275 39.9383 326.375 39.6022 326.574C39.2752 326.774 39.0117 327.065 38.8119 327.446C38.6211 327.819 38.5257 328.273 38.5257 328.809V332.488H37.5719ZM45.3275 332.488V325.607H46.2813V332.488H45.3275ZM45.8044 323.985C45.6137 323.985 45.4502 323.922 45.3139 323.795C45.1776 323.658 45.1095 323.49 45.1095 323.291C45.1095 323.082 45.1731 322.918 45.3003 322.8C45.4365 322.673 45.6046 322.609 45.8044 322.609C45.9861 322.609 46.1451 322.673 46.2813 322.8C46.4176 322.918 46.4857 323.082 46.4857 323.291C46.4857 323.49 46.4176 323.658 46.2813 323.795C46.1542 323.922 45.9952 323.985 45.8044 323.985ZM50.9168 335.649C50.3173 335.649 49.7813 335.567 49.309 335.404C48.8366 335.24 48.4641 334.995 48.1916 334.668C47.9282 334.341 47.7965 333.937 47.7965 333.455C47.7965 333.265 47.8328 333.056 47.9055 332.829C47.9782 332.611 48.1099 332.388 48.3006 332.161C48.5005 331.934 48.7866 331.725 49.1591 331.534L49.9357 331.875C49.4452 332.111 49.1273 332.361 48.9819 332.624C48.8366 332.897 48.7639 333.142 48.7639 333.36C48.7639 333.687 48.8548 333.96 49.0364 334.178C49.2272 334.396 49.4861 334.559 49.8131 334.668C50.1401 334.786 50.508 334.845 50.9168 334.845C51.3347 334.845 51.698 334.782 52.0069 334.655C52.3157 334.536 52.5519 334.364 52.7154 334.137C52.8789 333.919 52.9607 333.664 52.9607 333.374C52.9607 333.038 52.829 332.751 52.5655 332.515C52.3112 332.288 51.8297 332.156 51.1212 332.12C50.5762 332.084 50.122 332.038 49.7586 331.984C49.4043 331.92 49.1091 331.848 48.8729 331.766C48.6367 331.675 48.4414 331.58 48.287 331.48C48.1417 331.38 48.0009 331.271 47.8646 331.153V330.826L49.1727 329.599L50.0584 329.913L48.7639 331.057L48.8457 330.689C48.9456 330.762 49.041 330.83 49.1318 330.894C49.2317 330.948 49.3589 330.998 49.5133 331.044C49.6769 331.089 49.904 331.135 50.1946 331.18C50.4853 331.216 50.8714 331.253 51.3528 331.289C51.9796 331.334 52.4792 331.443 52.8517 331.616C53.2332 331.789 53.5103 332.02 53.6829 332.311C53.8555 332.602 53.9418 332.942 53.9418 333.333C53.9418 333.723 53.8328 334.096 53.6147 334.45C53.4058 334.804 53.0788 335.091 52.6337 335.309C52.1886 335.536 51.6163 335.649 50.9168 335.649ZM50.9032 330.294C50.3309 330.294 49.8449 330.19 49.4452 329.981C49.0455 329.763 48.7412 329.468 48.5323 329.095C48.3324 328.723 48.2325 328.314 48.2325 327.869C48.2325 327.415 48.337 327.006 48.5459 326.643C48.7548 326.27 49.0546 325.979 49.4452 325.77C49.8449 325.552 50.3309 325.443 50.9032 325.443C51.4846 325.443 51.9751 325.552 52.3748 325.77C52.7745 325.979 53.0742 326.27 53.2741 326.643C53.4739 327.006 53.5739 327.415 53.5739 327.869C53.5739 328.314 53.4739 328.723 53.2741 329.095C53.0742 329.468 52.7745 329.763 52.3748 329.981C51.9751 330.19 51.4846 330.294 50.9032 330.294ZM50.9032 329.49C51.4391 329.49 51.857 329.354 52.1568 329.082C52.4656 328.8 52.6201 328.396 52.6201 327.869C52.6201 327.333 52.4656 326.933 52.1568 326.67C51.857 326.397 51.4391 326.261 50.9032 326.261C50.3763 326.261 49.9585 326.397 49.6496 326.67C49.3407 326.933 49.1863 327.333 49.1863 327.869C49.1863 328.396 49.3362 328.8 49.636 329.082C49.9448 329.354 50.3672 329.49 50.9032 329.49ZM52.0341 326.452L51.7071 325.607H54.4732V326.37L52.0341 326.452ZM55.7194 332.488V322.677H56.6732V326.833C56.9094 326.397 57.2364 326.057 57.6543 325.811C58.0812 325.566 58.54 325.443 59.0305 325.443C59.5574 325.443 60.0116 325.548 60.3931 325.757C60.7746 325.966 61.0699 326.284 61.2788 326.711C61.4968 327.129 61.6058 327.664 61.6058 328.319V332.488H60.6656V328.428C60.6656 327.701 60.5112 327.16 60.2023 326.806C59.9026 326.452 59.4575 326.275 58.867 326.275C58.4582 326.275 58.0858 326.375 57.7497 326.574C57.4227 326.774 57.1592 327.065 56.9594 327.446C56.7686 327.819 56.6732 328.273 56.6732 328.809V332.488H55.7194ZM66.2819 332.652C65.6461 332.652 65.0829 332.502 64.5923 332.202C64.1109 331.902 63.7294 331.484 63.4478 330.948C63.1752 330.403 63.039 329.767 63.039 329.041C63.039 328.305 63.1752 327.669 63.4478 327.133C63.7203 326.597 64.1018 326.184 64.5923 325.893C65.0919 325.593 65.6597 325.443 66.2956 325.443C66.9678 325.443 67.531 325.593 67.9852 325.893C68.4485 326.193 68.7982 326.583 69.0344 327.065C69.2796 327.546 69.4023 328.078 69.4023 328.659C69.4023 328.741 69.4023 328.832 69.4023 328.932C69.4023 329.023 69.3977 329.132 69.3887 329.259H63.7612V328.468H68.4757C68.4575 327.76 68.2395 327.215 67.8217 326.833C67.4129 326.452 66.8951 326.261 66.2683 326.261C65.8595 326.261 65.478 326.352 65.1237 326.534C64.7786 326.715 64.4969 326.988 64.2789 327.351C64.07 327.714 63.9655 328.173 63.9655 328.727V329.082C63.9655 329.699 64.0745 330.213 64.2926 330.621C64.5106 331.03 64.7967 331.334 65.151 331.534C65.5053 331.734 65.8823 331.834 66.2819 331.834C66.7997 331.834 67.2267 331.72 67.5628 331.493C67.8989 331.266 68.1396 330.944 68.285 330.526H69.2115C69.1025 330.935 68.9163 331.303 68.6529 331.63C68.3985 331.948 68.0715 332.197 67.6718 332.379C67.2721 332.561 66.8088 332.652 66.2819 332.652ZM70.8782 332.488V325.607H71.7503L71.8184 326.929C71.9638 326.611 72.1591 326.343 72.4043 326.125C72.6587 325.898 72.9585 325.73 73.3037 325.621C73.6488 325.502 74.044 325.443 74.4891 325.443V326.438H74.094C73.8033 326.438 73.5217 326.474 73.2491 326.547C72.9766 326.62 72.7359 326.747 72.527 326.929C72.318 327.11 72.15 327.356 72.0228 327.664C71.8956 327.973 71.8321 328.359 71.8321 328.823V332.488H70.8782ZM82.3536 332.652C81.7177 332.652 81.1545 332.502 80.664 332.202C80.1825 331.902 79.801 331.484 79.5194 330.948C79.2469 330.403 79.1106 329.767 79.1106 329.041C79.1106 328.305 79.2469 327.669 79.5194 327.133C79.7919 326.597 80.1735 326.184 80.664 325.893C81.1636 325.593 81.7314 325.443 82.3672 325.443C83.0394 325.443 83.6026 325.593 84.0568 325.893C84.5201 326.193 84.8699 326.583 85.106 327.065C85.3513 327.546 85.4739 328.078 85.4739 328.659C85.4739 328.741 85.4739 328.832 85.4739 328.932C85.4739 329.023 85.4694 329.132 85.4603 329.259H79.8328V328.468H84.5474C84.5292 327.76 84.3112 327.215 83.8933 326.833C83.4846 326.452 82.9668 326.261 82.34 326.261C81.9312 326.261 81.5497 326.352 81.1954 326.534C80.8502 326.715 80.5686 326.988 80.3506 327.351C80.1417 327.714 80.0372 328.173 80.0372 328.727V329.082C80.0372 329.699 80.1462 330.213 80.3642 330.621C80.5822 331.03 80.8684 331.334 81.2227 331.534C81.5769 331.734 81.9539 331.834 82.3536 331.834C82.8714 331.834 83.2983 331.72 83.6344 331.493C83.9705 331.266 84.2113 330.944 84.3566 330.526H85.2832C85.1742 330.935 84.9879 331.303 84.7245 331.63C84.4702 331.948 84.1431 332.197 83.7434 332.379C83.3438 332.561 82.8805 332.652 82.3536 332.652ZM87.3587 332.488V324.435C87.3587 324.035 87.4223 323.708 87.5494 323.454C87.6857 323.191 87.8855 322.995 88.149 322.868C88.4215 322.741 88.7576 322.677 89.1573 322.677H89.9476V323.495H89.3208C88.9575 323.495 88.6986 323.568 88.5441 323.713C88.3897 323.858 88.3125 324.113 88.3125 324.476V332.488H87.3587ZM86.2959 326.425V325.607H90.1247V326.425H86.2959ZM91.8244 332.488V326.411H90.7615V325.607H91.8244V324.435C91.8244 324.035 91.8879 323.708 92.0151 323.454C92.1514 323.191 92.3512 322.995 92.6147 322.868C92.8872 322.741 93.2233 322.677 93.623 322.677H94.2906V323.495H93.7729C93.4186 323.495 93.1642 323.568 93.0098 323.713C92.8554 323.858 92.7782 324.113 92.7782 324.476V325.607H96.8387V332.488H95.8849V326.411H92.7782V332.488H91.8244ZM96.3754 324.163C96.1937 324.163 96.0348 324.094 95.8985 323.958C95.7622 323.822 95.6941 323.654 95.6941 323.454C95.6941 323.254 95.7622 323.091 95.8985 322.964C96.0348 322.836 96.1937 322.773 96.3754 322.773C96.5753 322.773 96.7388 322.836 96.8659 322.964C97.0022 323.091 97.0703 323.254 97.0703 323.454C97.0703 323.654 97.0022 323.822 96.8659 323.958C96.7388 324.094 96.5753 324.163 96.3754 324.163ZM101.86 332.652C101.224 332.652 100.657 332.502 100.157 332.202C99.6574 331.902 99.2623 331.484 98.9716 330.948C98.6809 330.403 98.5355 329.772 98.5355 329.054C98.5355 328.319 98.6809 327.683 98.9716 327.147C99.2623 326.611 99.6574 326.193 100.157 325.893C100.666 325.593 101.233 325.443 101.86 325.443C102.66 325.443 103.327 325.652 103.863 326.07C104.399 326.479 104.74 327.024 104.885 327.705H103.918C103.818 327.242 103.577 326.888 103.196 326.643C102.823 326.388 102.374 326.261 101.847 326.261C101.438 326.261 101.056 326.365 100.702 326.574C100.348 326.783 100.062 327.092 99.8436 327.501C99.6256 327.91 99.5166 328.428 99.5166 329.054C99.5166 329.518 99.5802 329.922 99.7074 330.267C99.8346 330.612 100.007 330.903 100.225 331.139C100.443 331.375 100.693 331.552 100.975 331.67C101.256 331.789 101.547 331.848 101.847 331.848C102.192 331.848 102.51 331.789 102.8 331.67C103.091 331.552 103.332 331.389 103.523 331.18C103.722 330.962 103.854 330.699 103.918 330.39H104.885C104.74 331.053 104.399 331.598 103.863 332.025C103.327 332.443 102.66 332.652 101.86 332.652ZM106.564 332.488V325.607H107.518V332.488H106.564ZM107.041 323.985C106.85 323.985 106.687 323.922 106.551 323.795C106.414 323.658 106.346 323.49 106.346 323.291C106.346 323.082 106.41 322.918 106.537 322.8C106.673 322.673 106.841 322.609 107.041 322.609C107.223 322.609 107.382 322.673 107.518 322.8C107.654 322.918 107.722 323.082 107.722 323.291C107.722 323.49 107.654 323.658 107.518 323.795C107.391 323.922 107.232 323.985 107.041 323.985ZM112.44 332.652C111.804 332.652 111.241 332.502 110.75 332.202C110.269 331.902 109.887 331.484 109.606 330.948C109.333 330.403 109.197 329.767 109.197 329.041C109.197 328.305 109.333 327.669 109.606 327.133C109.878 326.597 110.26 326.184 110.75 325.893C111.25 325.593 111.817 325.443 112.453 325.443C113.126 325.443 113.689 325.593 114.143 325.893C114.606 326.193 114.956 326.583 115.192 327.065C115.437 327.546 115.56 328.078 115.56 328.659C115.56 328.741 115.56 328.832 115.56 328.932C115.56 329.023 115.556 329.132 115.546 329.259H109.919V328.468H114.634C114.615 327.76 114.397 327.215 113.979 326.833C113.571 326.452 113.053 326.261 112.426 326.261C112.017 326.261 111.636 326.352 111.282 326.534C110.936 326.715 110.655 326.988 110.437 327.351C110.228 327.714 110.123 328.173 110.123 328.727V329.082C110.123 329.699 110.232 330.213 110.45 330.621C110.668 331.03 110.955 331.334 111.309 331.534C111.663 331.734 112.04 331.834 112.44 331.834C112.958 331.834 113.384 331.72 113.721 331.493C114.057 331.266 114.297 330.944 114.443 330.526H115.369C115.26 330.935 115.074 331.303 114.811 331.63C114.556 331.948 114.229 332.197 113.83 332.379C113.43 332.561 112.967 332.652 112.44 332.652ZM117.036 332.488V325.607H117.908L117.963 326.82C118.181 326.384 118.494 326.048 118.903 325.811C119.321 325.566 119.784 325.443 120.293 325.443C120.819 325.443 121.278 325.548 121.669 325.757C122.059 325.957 122.364 326.27 122.582 326.697C122.8 327.115 122.909 327.651 122.909 328.305V332.488H121.955V328.414C121.955 327.687 121.796 327.151 121.478 326.806C121.16 326.452 120.706 326.275 120.115 326.275C119.716 326.275 119.352 326.37 119.025 326.561C118.707 326.752 118.453 327.033 118.262 327.406C118.081 327.778 117.99 328.237 117.99 328.782V332.488H117.036ZM127.667 332.652C127.031 332.652 126.463 332.502 125.964 332.202C125.464 331.902 125.069 331.484 124.778 330.948C124.488 330.403 124.342 329.772 124.342 329.054C124.342 328.319 124.488 327.683 124.778 327.147C125.069 326.611 125.464 326.193 125.964 325.893C126.472 325.593 127.04 325.443 127.667 325.443C128.466 325.443 129.134 325.652 129.67 326.07C130.206 326.479 130.547 327.024 130.692 327.705H129.725C129.625 327.242 129.384 326.888 129.002 326.643C128.63 326.388 128.18 326.261 127.653 326.261C127.245 326.261 126.863 326.365 126.509 326.574C126.155 326.783 125.868 327.092 125.65 327.501C125.432 327.91 125.323 328.428 125.323 329.054C125.323 329.518 125.387 329.922 125.514 330.267C125.641 330.612 125.814 330.903 126.032 331.139C126.25 331.375 126.5 331.552 126.781 331.67C127.063 331.789 127.354 331.848 127.653 331.848C127.999 331.848 128.317 331.789 128.607 331.67C128.898 331.552 129.139 331.389 129.329 331.18C129.529 330.962 129.661 330.699 129.725 330.39H130.692C130.547 331.053 130.206 331.598 129.67 332.025C129.134 332.443 128.466 332.652 127.667 332.652ZM132.943 335.486L134.633 331.725H134.265L131.567 325.607H132.603L134.933 331.057L137.399 325.607H138.38L133.938 335.486H132.943ZM144.659 332.488L142.642 325.607H143.61L145.245 331.48H145.068L146.839 325.607H147.929L149.701 331.48H149.523L151.159 325.607H152.126L150.109 332.488H149.128L147.302 326.343H147.466L145.64 332.488H144.659ZM153.376 332.488V322.677H154.33V326.833C154.566 326.397 154.893 326.057 155.311 325.811C155.738 325.566 156.197 325.443 156.687 325.443C157.214 325.443 157.668 325.548 158.05 325.757C158.431 325.966 158.727 326.284 158.936 326.711C159.154 327.129 159.263 327.664 159.263 328.319V332.488H158.322V328.428C158.322 327.701 158.168 327.16 157.859 326.806C157.559 326.452 157.114 326.275 156.524 326.275C156.115 326.275 155.743 326.375 155.406 326.574C155.079 326.774 154.816 327.065 154.616 327.446C154.425 327.819 154.33 328.273 154.33 328.809V332.488H153.376ZM161.132 332.488V325.607H162.086V332.488H161.132ZM161.609 323.985C161.418 323.985 161.254 323.922 161.118 323.795C160.982 323.658 160.914 323.49 160.914 323.291C160.914 323.082 160.977 322.918 161.105 322.8C161.241 322.673 161.409 322.609 161.609 322.609C161.79 322.609 161.949 322.673 162.086 322.8C162.222 322.918 162.29 323.082 162.29 323.291C162.29 323.49 162.222 323.658 162.086 323.795C161.958 323.922 161.799 323.985 161.609 323.985ZM167.089 332.652C166.453 332.652 165.885 332.502 165.386 332.202C164.886 331.902 164.491 331.484 164.2 330.948C163.91 330.403 163.764 329.772 163.764 329.054C163.764 328.319 163.91 327.683 164.2 327.147C164.491 326.611 164.886 326.193 165.386 325.893C165.894 325.593 166.462 325.443 167.089 325.443C167.888 325.443 168.556 325.652 169.092 326.07C169.628 326.479 169.969 327.024 170.114 327.705H169.147C169.047 327.242 168.806 326.888 168.424 326.643C168.052 326.388 167.602 326.261 167.075 326.261C166.667 326.261 166.285 326.365 165.931 326.574C165.577 326.783 165.29 327.092 165.072 327.501C164.854 327.91 164.745 328.428 164.745 329.054C164.745 329.518 164.809 329.922 164.936 330.267C165.063 330.612 165.236 330.903 165.454 331.139C165.672 331.375 165.922 331.552 166.203 331.67C166.485 331.789 166.776 331.848 167.075 331.848C167.421 331.848 167.739 331.789 168.029 331.67C168.32 331.552 168.561 331.389 168.751 331.18C168.951 330.962 169.083 330.699 169.147 330.39H170.114C169.969 331.053 169.628 331.598 169.092 332.025C168.556 332.443 167.888 332.652 167.089 332.652ZM171.657 332.488V322.677H172.611V326.833C172.847 326.397 173.174 326.057 173.592 325.811C174.019 325.566 174.477 325.443 174.968 325.443C175.495 325.443 175.949 325.548 176.33 325.757C176.712 325.966 177.007 326.284 177.216 326.711C177.434 327.129 177.543 327.664 177.543 328.319V332.488H176.603V328.428C176.603 327.701 176.449 327.16 176.14 326.806C175.84 326.452 175.395 326.275 174.804 326.275C174.396 326.275 174.023 326.375 173.687 326.574C173.36 326.774 173.097 327.065 172.897 327.446C172.706 327.819 172.611 328.273 172.611 328.809V332.488H171.657ZM182.957 332.488V325.607H183.829L183.897 326.929C184.042 326.611 184.238 326.343 184.483 326.125C184.737 325.898 185.037 325.73 185.382 325.621C185.727 325.502 186.122 325.443 186.568 325.443V326.438H186.172C185.882 326.438 185.6 326.474 185.328 326.547C185.055 326.62 184.814 326.747 184.605 326.929C184.397 327.11 184.228 327.356 184.101 327.664C183.974 327.973 183.911 328.359 183.911 328.823V332.488H182.957ZM190.459 332.652C189.823 332.652 189.26 332.502 188.769 332.202C188.288 331.902 187.906 331.484 187.625 330.948C187.352 330.403 187.216 329.767 187.216 329.041C187.216 328.305 187.352 327.669 187.625 327.133C187.897 326.597 188.279 326.184 188.769 325.893C189.269 325.593 189.836 325.443 190.472 325.443C191.145 325.443 191.708 325.593 192.162 325.893C192.625 326.193 192.975 326.583 193.211 327.065C193.456 327.546 193.579 328.078 193.579 328.659C193.579 328.741 193.579 328.832 193.579 328.932C193.579 329.023 193.575 329.132 193.565 329.259H187.938V328.468H192.653C192.634 327.76 192.416 327.215 191.998 326.833C191.59 326.452 191.072 326.261 190.445 326.261C190.036 326.261 189.655 326.352 189.301 326.534C188.955 326.715 188.674 326.988 188.456 327.351C188.247 327.714 188.142 328.173 188.142 328.727V329.082C188.142 329.699 188.251 330.213 188.469 330.621C188.687 331.03 188.974 331.334 189.328 331.534C189.682 331.734 190.059 331.834 190.459 331.834C190.977 331.834 191.403 331.72 191.74 331.493C192.076 331.266 192.316 330.944 192.462 330.526H193.388C193.279 330.935 193.093 331.303 192.83 331.63C192.575 331.948 192.248 332.197 191.849 332.379C191.449 332.561 190.986 332.652 190.459 332.652ZM197.576 332.652C197.031 332.652 196.549 332.561 196.131 332.379C195.723 332.197 195.391 331.938 195.137 331.602C194.892 331.257 194.742 330.848 194.687 330.376H195.682C195.727 330.639 195.827 330.88 195.982 331.098C196.145 331.316 196.363 331.493 196.636 331.63C196.908 331.757 197.231 331.82 197.603 331.82C197.948 331.82 198.23 331.77 198.448 331.67C198.675 331.561 198.843 331.416 198.952 331.234C199.07 331.053 199.129 330.857 199.129 330.649C199.129 330.34 199.061 330.104 198.925 329.94C198.789 329.767 198.589 329.64 198.325 329.558C198.062 329.477 197.739 329.399 197.358 329.327C197.049 329.272 196.754 329.2 196.472 329.109C196.191 329.018 195.936 328.9 195.709 328.755C195.491 328.609 195.318 328.428 195.191 328.21C195.064 327.982 195.001 327.714 195.001 327.406C195.001 327.015 195.096 326.674 195.287 326.384C195.487 326.093 195.768 325.866 196.131 325.702C196.495 325.53 196.922 325.443 197.412 325.443C198.112 325.443 198.684 325.621 199.129 325.975C199.583 326.32 199.847 326.824 199.919 327.487H198.952C198.916 327.115 198.761 326.82 198.489 326.602C198.216 326.384 197.848 326.275 197.385 326.275C196.931 326.275 196.581 326.37 196.336 326.561C196.1 326.752 195.982 327.006 195.982 327.324C195.982 327.515 196.041 327.687 196.159 327.842C196.286 327.987 196.477 328.114 196.731 328.223C196.985 328.332 197.294 328.418 197.658 328.482C198.103 328.564 198.507 328.673 198.87 328.809C199.243 328.936 199.542 329.136 199.77 329.409C199.997 329.672 200.11 330.054 200.11 330.553C200.119 330.962 200.019 331.325 199.81 331.643C199.602 331.961 199.306 332.211 198.925 332.393C198.552 332.565 198.103 332.652 197.576 332.652ZM204.196 332.652C203.678 332.652 203.224 332.552 202.834 332.352C202.443 332.143 202.139 331.829 201.921 331.412C201.703 330.985 201.594 330.444 201.594 329.79V325.607H202.547V329.681C202.547 330.408 202.706 330.948 203.024 331.303C203.342 331.648 203.792 331.82 204.373 331.82C204.782 331.82 205.145 331.725 205.463 331.534C205.781 331.343 206.031 331.062 206.213 330.689C206.404 330.317 206.499 329.858 206.499 329.313V325.607H207.453V332.488H206.594L206.526 331.262C206.317 331.707 206.004 332.052 205.586 332.297C205.177 332.533 204.714 332.652 204.196 332.652ZM209.309 332.488V322.677H210.263V332.488H209.309ZM214.741 332.488C214.35 332.488 214.014 332.429 213.733 332.311C213.451 332.184 213.233 331.979 213.078 331.698C212.933 331.407 212.86 331.012 212.86 330.512V326.425H211.648V325.607H212.86L212.983 323.985H213.814V325.607H215.872V326.425H213.814V330.512C213.814 330.966 213.905 331.275 214.087 331.439C214.268 331.593 214.586 331.67 215.041 331.67H215.763V332.488H214.741ZM220.026 332.652C219.39 332.652 218.827 332.502 218.336 332.202C217.855 331.902 217.473 331.484 217.192 330.948C216.919 330.403 216.783 329.767 216.783 329.041C216.783 328.305 216.919 327.669 217.192 327.133C217.464 326.597 217.846 326.184 218.336 325.893C218.836 325.593 219.404 325.443 220.04 325.443C220.712 325.443 221.275 325.593 221.729 325.893C222.192 326.193 222.542 326.583 222.778 327.065C223.024 327.546 223.146 328.078 223.146 328.659C223.146 328.741 223.146 328.832 223.146 328.932C223.146 329.023 223.142 329.132 223.133 329.259H217.505V328.468H222.22C222.202 327.76 221.983 327.215 221.566 326.833C221.157 326.452 220.639 326.261 220.012 326.261C219.603 326.261 219.222 326.352 218.868 326.534C218.523 326.715 218.241 326.988 218.023 327.351C217.814 327.714 217.709 328.173 217.709 328.727V329.082C217.709 329.699 217.819 330.213 218.037 330.621C218.255 331.03 218.541 331.334 218.895 331.534C219.249 331.734 219.626 331.834 220.026 331.834C220.544 331.834 220.971 331.72 221.307 331.493C221.643 331.266 221.884 330.944 222.029 330.526H222.955C222.846 330.935 222.66 331.303 222.397 331.63C222.142 331.948 221.815 332.197 221.416 332.379C221.016 332.561 220.553 332.652 220.026 332.652ZM227.62 332.652C226.948 332.652 226.366 332.497 225.876 332.188C225.385 331.87 225.004 331.439 224.731 330.894C224.459 330.349 224.322 329.727 224.322 329.027C224.322 328.337 224.459 327.724 224.731 327.188C225.004 326.643 225.39 326.216 225.889 325.907C226.389 325.598 226.97 325.443 227.634 325.443C228.215 325.443 228.724 325.571 229.16 325.825C229.596 326.07 229.932 326.42 230.168 326.874V322.677H231.122V332.488H230.263L230.182 331.234C230.036 331.48 229.845 331.711 229.609 331.929C229.373 332.138 229.091 332.311 228.764 332.447C228.437 332.583 228.056 332.652 227.62 332.652ZM227.702 331.82C228.183 331.82 228.601 331.707 228.955 331.48C229.319 331.244 229.6 330.921 229.8 330.512C230.009 330.094 230.113 329.604 230.113 329.041C230.113 328.487 230.009 328.001 229.8 327.583C229.6 327.165 229.319 326.842 228.955 326.615C228.601 326.388 228.183 326.275 227.702 326.275C227.229 326.275 226.811 326.388 226.448 326.615C226.085 326.842 225.799 327.165 225.59 327.583C225.39 327.991 225.29 328.477 225.29 329.041C225.29 329.604 225.394 330.094 225.603 330.512C225.812 330.93 226.098 331.253 226.462 331.48C226.825 331.707 227.238 331.82 227.702 331.82ZM236.804 332.488V325.607H237.757V332.488H236.804ZM237.28 323.985C237.09 323.985 236.926 323.922 236.79 323.795C236.654 323.658 236.586 323.49 236.586 323.291C236.586 323.082 236.649 322.918 236.776 322.8C236.913 322.673 237.081 322.609 237.28 322.609C237.462 322.609 237.621 322.673 237.757 322.8C237.894 322.918 237.962 323.082 237.962 323.291C237.962 323.49 237.894 323.658 237.757 323.795C237.63 323.922 237.471 323.985 237.28 323.985ZM239.736 332.488V325.607H240.608L240.662 326.82C240.88 326.384 241.194 326.048 241.603 325.811C242.02 325.566 242.484 325.443 242.992 325.443C243.519 325.443 243.978 325.548 244.369 325.757C244.759 325.957 245.064 326.27 245.282 326.697C245.5 327.115 245.609 327.651 245.609 328.305V332.488H244.655V328.414C244.655 327.687 244.496 327.151 244.178 326.806C243.86 326.452 243.406 326.275 242.815 326.275C242.416 326.275 242.052 326.37 241.725 326.561C241.407 326.752 241.153 327.033 240.962 327.406C240.78 327.778 240.69 328.237 240.69 328.782V332.488H239.736ZM253.216 332.652C252.662 332.652 252.199 332.552 251.826 332.352C251.463 332.152 251.19 331.893 251.009 331.575C250.836 331.248 250.75 330.898 250.75 330.526C250.75 330.044 250.868 329.645 251.104 329.327C251.349 329 251.69 328.755 252.126 328.591C252.562 328.418 253.066 328.332 253.639 328.332H255.492C255.492 327.887 255.424 327.51 255.287 327.201C255.16 326.892 254.965 326.661 254.701 326.506C254.438 326.343 254.106 326.261 253.707 326.261C253.234 326.261 252.83 326.379 252.494 326.615C252.167 326.842 251.967 327.183 251.894 327.637H250.886C250.941 327.156 251.104 326.752 251.377 326.425C251.658 326.097 252.003 325.852 252.412 325.689C252.821 325.525 253.253 325.443 253.707 325.443C254.333 325.443 254.847 325.562 255.246 325.798C255.655 326.034 255.955 326.365 256.146 326.792C256.346 327.21 256.446 327.692 256.446 328.237V332.488H255.587L255.533 331.234C255.442 331.416 255.328 331.593 255.192 331.766C255.056 331.938 254.892 332.093 254.701 332.229C254.52 332.356 254.306 332.456 254.061 332.529C253.816 332.611 253.534 332.652 253.216 332.652ZM253.325 331.82C253.661 331.82 253.961 331.752 254.224 331.616C254.497 331.471 254.724 331.284 254.906 331.057C255.097 330.83 255.242 330.571 255.342 330.281C255.442 329.99 255.492 329.695 255.492 329.395V329.136H253.72C253.23 329.136 252.839 329.195 252.549 329.313C252.267 329.431 252.063 329.595 251.935 329.804C251.808 330.004 251.745 330.235 251.745 330.499C251.745 330.753 251.804 330.98 251.922 331.18C252.049 331.38 252.231 331.539 252.467 331.657C252.703 331.766 252.989 331.82 253.325 331.82ZM261.829 332.488V331.82C262.492 331.293 263.119 330.767 263.71 330.24C264.309 329.704 264.836 329.172 265.29 328.646C265.754 328.119 266.117 327.605 266.38 327.106C266.644 326.597 266.776 326.102 266.776 325.621C266.776 325.266 266.712 324.939 266.585 324.64C266.467 324.331 266.267 324.081 265.985 323.89C265.713 323.699 265.34 323.604 264.868 323.604C264.405 323.604 264.023 323.704 263.723 323.904C263.424 324.104 263.201 324.367 263.056 324.694C262.91 325.012 262.838 325.362 262.838 325.743H261.911C261.911 325.135 262.038 324.612 262.293 324.176C262.547 323.731 262.897 323.39 263.342 323.154C263.787 322.909 264.296 322.786 264.868 322.786C265.413 322.786 265.899 322.886 266.326 323.086C266.753 323.286 267.093 323.595 267.348 324.013C267.602 324.431 267.729 324.962 267.729 325.607C267.729 326.061 267.629 326.52 267.43 326.983C267.239 327.437 266.984 327.882 266.667 328.319C266.349 328.755 265.99 329.177 265.59 329.586C265.199 329.985 264.804 330.367 264.405 330.73C264.005 331.085 263.628 331.403 263.274 331.684H268.084V332.488H261.829ZM272.687 332.652C272.088 332.652 271.543 332.543 271.052 332.325C270.571 332.097 270.185 331.766 269.894 331.33C269.612 330.885 269.458 330.34 269.431 329.695H270.412C270.421 330.076 270.512 330.426 270.684 330.744C270.866 331.062 271.125 331.321 271.461 331.521C271.797 331.711 272.206 331.807 272.687 331.807C273.169 331.807 273.568 331.716 273.886 331.534C274.213 331.353 274.459 331.107 274.622 330.798C274.786 330.48 274.867 330.135 274.867 329.763C274.867 329.281 274.749 328.895 274.513 328.605C274.286 328.314 273.982 328.1 273.6 327.964C273.228 327.819 272.814 327.746 272.36 327.746H271.652V326.929H272.374C273.046 326.929 273.564 326.774 273.927 326.465C274.3 326.157 274.486 325.734 274.486 325.198C274.486 324.753 274.336 324.381 274.036 324.081C273.736 323.781 273.291 323.631 272.701 323.631C272.138 323.631 271.683 323.795 271.338 324.122C270.993 324.44 270.798 324.853 270.752 325.362H269.771C269.798 324.862 269.935 324.421 270.18 324.04C270.425 323.649 270.761 323.345 271.188 323.127C271.624 322.9 272.129 322.786 272.701 322.786C273.309 322.786 273.818 322.895 274.227 323.113C274.645 323.322 274.954 323.608 275.153 323.972C275.362 324.326 275.467 324.717 275.467 325.144C275.467 325.462 275.412 325.766 275.303 326.057C275.194 326.347 275.017 326.602 274.772 326.82C274.536 327.038 274.222 327.192 273.832 327.283C274.222 327.365 274.568 327.51 274.867 327.719C275.167 327.928 275.403 328.205 275.576 328.55C275.758 328.886 275.848 329.286 275.848 329.749C275.848 330.267 275.73 330.748 275.494 331.194C275.258 331.63 274.904 331.984 274.431 332.256C273.968 332.52 273.387 332.652 272.687 332.652ZM278.207 332.488L283.807 322.95H284.761L279.175 332.488H278.207ZM283.998 332.652C283.598 332.652 283.235 332.561 282.908 332.379C282.59 332.197 282.336 331.938 282.145 331.602C281.963 331.257 281.873 330.857 281.873 330.403C281.873 329.94 281.968 329.54 282.159 329.204C282.349 328.868 282.608 328.609 282.935 328.428C283.262 328.246 283.621 328.155 284.012 328.155C284.411 328.155 284.77 328.246 285.088 328.428C285.406 328.609 285.656 328.868 285.838 329.204C286.028 329.54 286.124 329.94 286.124 330.403C286.124 330.857 286.028 331.257 285.838 331.602C285.656 331.938 285.402 332.197 285.075 332.379C284.757 332.561 284.398 332.652 283.998 332.652ZM283.998 331.888C284.234 331.888 284.448 331.834 284.639 331.725C284.829 331.616 284.984 331.452 285.102 331.234C285.229 331.007 285.293 330.73 285.293 330.403C285.293 330.067 285.229 329.79 285.102 329.572C284.984 329.354 284.829 329.191 284.639 329.082C284.448 328.973 284.239 328.918 284.012 328.918C283.794 328.918 283.585 328.973 283.385 329.082C283.185 329.191 283.022 329.354 282.894 329.572C282.776 329.79 282.717 330.067 282.717 330.403C282.717 330.73 282.776 331.007 282.894 331.234C283.013 331.452 283.172 331.616 283.371 331.725C283.571 331.834 283.78 331.888 283.998 331.888ZM279.052 327.297C278.652 327.297 278.289 327.206 277.962 327.024C277.644 326.842 277.39 326.583 277.199 326.247C277.017 325.902 276.926 325.502 276.926 325.048C276.926 324.585 277.022 324.185 277.212 323.849C277.403 323.513 277.662 323.254 277.989 323.073C278.316 322.891 278.68 322.8 279.079 322.8C279.47 322.8 279.824 322.891 280.142 323.073C280.469 323.254 280.723 323.513 280.905 323.849C281.087 324.185 281.178 324.585 281.178 325.048C281.178 325.502 281.082 325.902 280.891 326.247C280.71 326.583 280.455 326.842 280.128 327.024C279.81 327.206 279.452 327.297 279.052 327.297ZM279.066 326.534C279.293 326.534 279.502 326.479 279.692 326.37C279.883 326.261 280.038 326.097 280.156 325.879C280.283 325.652 280.346 325.375 280.346 325.048C280.346 324.712 280.283 324.435 280.156 324.217C280.038 323.999 279.883 323.836 279.692 323.727C279.502 323.608 279.297 323.549 279.079 323.549C278.852 323.549 278.639 323.608 278.439 323.727C278.239 323.836 278.075 323.999 277.948 324.217C277.83 324.435 277.771 324.712 277.771 325.048C277.771 325.375 277.83 325.652 277.948 325.879C278.066 326.097 278.225 326.261 278.425 326.37C278.625 326.479 278.838 326.534 279.066 326.534ZM37.7082 350.488V343.607H38.662V350.488H37.7082ZM38.1851 341.985C37.9943 341.985 37.8308 341.922 37.6946 341.795C37.5583 341.658 37.4902 341.49 37.4902 341.291C37.4902 341.082 37.5538 340.918 37.6809 340.8C37.8172 340.673 37.9853 340.609 38.1851 340.609C38.3668 340.609 38.5257 340.673 38.662 340.8C38.7983 340.918 38.8664 341.082 38.8664 341.291C38.8664 341.49 38.7983 341.658 38.662 341.795C38.5348 341.922 38.3759 341.985 38.1851 341.985ZM40.6404 350.488V343.607H41.5125L41.567 344.82C41.785 344.384 42.0984 344.048 42.5072 343.811C42.925 343.566 43.3883 343.443 43.897 343.443C44.4239 343.443 44.8826 343.548 45.2732 343.757C45.6638 343.957 45.9682 344.27 46.1862 344.697C46.4042 345.115 46.5132 345.651 46.5132 346.305V350.488H45.5594V346.414C45.5594 345.687 45.4004 345.151 45.0825 344.806C44.7645 344.452 44.3103 344.275 43.7199 344.275C43.3202 344.275 42.9568 344.37 42.6298 344.561C42.3119 344.752 42.0575 345.033 41.8668 345.406C41.6851 345.778 41.5942 346.237 41.5942 346.782V350.488H40.6404ZM51.2714 350.652C50.6355 350.652 50.0678 350.502 49.5682 350.202C49.0685 349.902 48.6734 349.484 48.3827 348.948C48.092 348.403 47.9467 347.772 47.9467 347.054C47.9467 346.319 48.092 345.683 48.3827 345.147C48.6734 344.611 49.0685 344.193 49.5682 343.893C50.0769 343.593 50.6446 343.443 51.2714 343.443C52.0708 343.443 52.7385 343.652 53.2744 344.07C53.8104 344.479 54.151 345.024 54.2964 345.705H53.3289C53.229 345.242 52.9883 344.888 52.6067 344.643C52.2343 344.388 51.7846 344.261 51.2578 344.261C50.849 344.261 50.4675 344.365 50.1132 344.574C49.7589 344.783 49.4728 345.092 49.2548 345.501C49.0368 345.91 48.9277 346.428 48.9277 347.054C48.9277 347.518 48.9913 347.922 49.1185 348.267C49.2457 348.612 49.4183 348.903 49.6363 349.139C49.8543 349.375 50.1041 349.552 50.3857 349.67C50.6673 349.789 50.958 349.848 51.2578 349.848C51.603 349.848 51.9209 349.789 52.2116 349.67C52.5023 349.552 52.743 349.389 52.9338 349.18C53.1336 348.962 53.2653 348.699 53.3289 348.39H54.2964C54.151 349.053 53.8104 349.598 53.2744 350.025C52.7385 350.443 52.0708 350.652 51.2714 350.652ZM55.8392 350.488V343.607H56.7112L56.7794 344.929C56.9247 344.611 57.12 344.343 57.3653 344.125C57.6196 343.898 57.9194 343.73 58.2646 343.621C58.6098 343.502 59.0049 343.443 59.45 343.443V344.438H59.0549C58.7642 344.438 58.4826 344.474 58.2101 344.547C57.9376 344.62 57.6968 344.747 57.4879 344.929C57.279 345.11 57.1109 345.356 56.9837 345.664C56.8566 345.973 56.793 346.359 56.793 346.823V350.488H55.8392ZM63.3412 350.652C62.7053 350.652 62.1421 350.502 61.6516 350.202C61.1701 349.902 60.7886 349.484 60.507 348.948C60.2345 348.403 60.0982 347.767 60.0982 347.041C60.0982 346.305 60.2345 345.669 60.507 345.133C60.7795 344.597 61.1611 344.184 61.6516 343.893C62.1512 343.593 62.7189 343.443 63.3548 343.443C64.027 343.443 64.5902 343.593 65.0444 343.893C65.5077 344.193 65.8574 344.583 66.0936 345.065C66.3389 345.546 66.4615 346.078 66.4615 346.659C66.4615 346.741 66.4615 346.832 66.4615 346.932C66.4615 347.023 66.457 347.132 66.4479 347.259H60.8204V346.468H65.535C65.5168 345.76 65.2988 345.215 64.8809 344.833C64.4721 344.452 63.9544 344.261 63.3276 344.261C62.9188 344.261 62.5373 344.352 62.183 344.534C61.8378 344.715 61.5562 344.988 61.3382 345.351C61.1293 345.714 61.0248 346.173 61.0248 346.727V347.082C61.0248 347.699 61.1338 348.213 61.3518 348.621C61.5698 349.03 61.856 349.334 62.2102 349.534C62.5645 349.734 62.9415 349.834 63.3412 349.834C63.859 349.834 64.2859 349.72 64.622 349.493C64.9581 349.266 65.1989 348.944 65.3442 348.526H66.2708C66.1618 348.935 65.9755 349.303 65.7121 349.63C65.4578 349.948 65.1307 350.197 64.731 350.379C64.3313 350.561 63.8681 350.652 63.3412 350.652ZM70.1313 350.652C69.5771 350.652 69.1139 350.552 68.7414 350.352C68.3781 350.152 68.1055 349.893 67.9239 349.575C67.7513 349.248 67.665 348.898 67.665 348.526C67.665 348.044 67.7831 347.645 68.0192 347.327C68.2645 347 68.6052 346.755 69.0412 346.591C69.4772 346.418 69.9814 346.332 70.5537 346.332H72.4068C72.4068 345.887 72.3387 345.51 72.2024 345.201C72.0752 344.892 71.8799 344.661 71.6165 344.506C71.3531 344.343 71.0215 344.261 70.6218 344.261C70.1494 344.261 69.7452 344.379 69.4091 344.615C69.0821 344.842 68.8822 345.183 68.8096 345.637H67.8012C67.8557 345.156 68.0192 344.752 68.2918 344.425C68.5734 344.097 68.9186 343.852 69.3273 343.689C69.7361 343.525 70.1676 343.443 70.6218 343.443C71.2486 343.443 71.7618 343.562 72.1615 343.798C72.5703 344.034 72.8701 344.365 73.0608 344.792C73.2607 345.21 73.3606 345.692 73.3606 346.237V350.488H72.5022L72.4477 349.234C72.3568 349.416 72.2433 349.593 72.107 349.766C71.9708 349.938 71.8073 350.093 71.6165 350.229C71.4348 350.356 71.2213 350.456 70.9761 350.529C70.7308 350.611 70.4492 350.652 70.1313 350.652ZM70.2403 349.82C70.5764 349.82 70.8761 349.752 71.1396 349.616C71.4121 349.471 71.6392 349.284 71.8209 349.057C72.0116 348.83 72.157 348.571 72.2569 348.281C72.3568 347.99 72.4068 347.695 72.4068 347.395V347.136H70.6354C70.1449 347.136 69.7543 347.195 69.4636 347.313C69.182 347.431 68.9776 347.595 68.8504 347.804C68.7233 348.004 68.6597 348.235 68.6597 348.499C68.6597 348.753 68.7187 348.98 68.8368 349.18C68.964 349.38 69.1457 349.539 69.3818 349.657C69.618 349.766 69.9042 349.82 70.2403 349.82ZM77.6119 350.652C77.0669 350.652 76.5854 350.561 76.1675 350.379C75.7588 350.197 75.4272 349.938 75.1729 349.602C74.9276 349.257 74.7777 348.848 74.7232 348.376H75.7179C75.7633 348.639 75.8632 348.88 76.0177 349.098C76.1812 349.316 76.3992 349.493 76.6717 349.63C76.9442 349.757 77.2667 349.82 77.6391 349.82C77.9843 349.82 78.2659 349.77 78.4839 349.67C78.711 349.561 78.8791 349.416 78.9881 349.234C79.1062 349.053 79.1652 348.857 79.1652 348.649C79.1652 348.34 79.0971 348.104 78.9609 347.94C78.8246 347.767 78.6248 347.64 78.3613 347.558C78.0979 347.477 77.7754 347.399 77.3939 347.327C77.085 347.272 76.7898 347.2 76.5082 347.109C76.2266 347.018 75.9722 346.9 75.7451 346.755C75.5271 346.609 75.3545 346.428 75.2274 346.21C75.1002 345.982 75.0366 345.714 75.0366 345.406C75.0366 345.015 75.132 344.674 75.3227 344.384C75.5226 344.093 75.8042 343.866 76.1675 343.702C76.5309 343.53 76.9578 343.443 77.4484 343.443C78.1478 343.443 78.7201 343.621 79.1652 343.975C79.6194 344.32 79.8829 344.824 79.9555 345.487H78.9881C78.9518 345.115 78.7973 344.82 78.5248 344.602C78.2523 344.384 77.8844 344.275 77.4211 344.275C76.9669 344.275 76.6172 344.37 76.3719 344.561C76.1358 344.752 76.0177 345.006 76.0177 345.324C76.0177 345.515 76.0767 345.687 76.1948 345.842C76.322 345.987 76.5127 346.114 76.7671 346.223C77.0214 346.332 77.3303 346.418 77.6936 346.482C78.1388 346.564 78.543 346.673 78.9064 346.809C79.2788 346.936 79.5786 347.136 79.8057 347.409C80.0328 347.672 80.1463 348.054 80.1463 348.553C80.1554 348.962 80.0555 349.325 79.8465 349.643C79.6376 349.961 79.3424 350.211 78.9609 350.393C78.5884 350.565 78.1388 350.652 77.6119 350.652ZM84.6956 350.652C84.0597 350.652 83.4965 350.502 83.0059 350.202C82.5245 349.902 82.143 349.484 81.8614 348.948C81.5888 348.403 81.4526 347.767 81.4526 347.041C81.4526 346.305 81.5888 345.669 81.8614 345.133C82.1339 344.597 82.5154 344.184 83.0059 343.893C83.5056 343.593 84.0733 343.443 84.7092 343.443C85.3814 343.443 85.9446 343.593 86.3988 343.893C86.8621 344.193 87.2118 344.583 87.448 345.065C87.6933 345.546 87.8159 346.078 87.8159 346.659C87.8159 346.741 87.8159 346.832 87.8159 346.932C87.8159 347.023 87.8113 347.132 87.8023 347.259H82.1748V346.468H86.8893C86.8712 345.76 86.6531 345.215 86.2353 344.833C85.8265 344.452 85.3087 344.261 84.6819 344.261C84.2732 344.261 83.8916 344.352 83.5374 344.534C83.1922 344.715 82.9106 344.988 82.6925 345.351C82.4836 345.714 82.3792 346.173 82.3792 346.727V347.082C82.3792 347.699 82.4882 348.213 82.7062 348.621C82.9242 349.03 83.2103 349.334 83.5646 349.534C83.9189 349.734 84.2959 349.834 84.6956 349.834C85.2133 349.834 85.6403 349.72 85.9764 349.493C86.3125 349.266 86.5532 348.944 86.6986 348.526H87.6251C87.5161 348.935 87.3299 349.303 87.0665 349.63C86.8121 349.948 86.4851 350.197 86.0854 350.379C85.6857 350.561 85.2224 350.652 84.6956 350.652ZM93.1087 350.488V343.607H94.0625V350.488H93.1087ZM93.5856 341.985C93.3949 341.985 93.2313 341.922 93.0951 341.795C92.9588 341.658 92.8907 341.49 92.8907 341.291C92.8907 341.082 92.9543 340.918 93.0815 340.8C93.2177 340.673 93.3858 340.609 93.5856 340.609C93.7673 340.609 93.9263 340.673 94.0625 340.8C94.1988 340.918 94.2669 341.082 94.2669 341.291C94.2669 341.49 94.1988 341.658 94.0625 341.795C93.9353 341.922 93.7764 341.985 93.5856 341.985ZM96.0409 350.488V343.607H96.913L96.9675 344.82C97.1855 344.384 97.4989 344.048 97.9077 343.811C98.3256 343.566 98.7888 343.443 99.2975 343.443C99.8244 343.443 100.283 343.548 100.674 343.757C101.064 343.957 101.369 344.27 101.587 344.697C101.805 345.115 101.914 345.651 101.914 346.305V350.488H100.96V346.414C100.96 345.687 100.801 345.151 100.483 344.806C100.165 344.452 99.7109 344.275 99.1204 344.275C98.7207 344.275 98.3573 344.37 98.0303 344.561C97.7124 344.752 97.458 345.033 97.2673 345.406C97.0856 345.778 96.9948 346.237 96.9948 346.782V350.488H96.0409ZM107.328 350.488V343.607H108.2L108.268 344.929C108.413 344.611 108.608 344.343 108.854 344.125C109.108 343.898 109.408 343.73 109.753 343.621C110.098 343.502 110.493 343.443 110.938 343.443V344.438H110.543C110.253 344.438 109.971 344.474 109.698 344.547C109.426 344.62 109.185 344.747 108.976 344.929C108.767 345.11 108.599 345.356 108.472 345.664C108.345 345.973 108.281 346.359 108.281 346.823V350.488H107.328ZM114.83 350.652C114.194 350.652 113.631 350.502 113.14 350.202C112.659 349.902 112.277 349.484 111.995 348.948C111.723 348.403 111.587 347.767 111.587 347.041C111.587 346.305 111.723 345.669 111.995 345.133C112.268 344.597 112.649 344.184 113.14 343.893C113.64 343.593 114.207 343.443 114.843 343.443C115.515 343.443 116.079 343.593 116.533 343.893C116.996 344.193 117.346 344.583 117.582 345.065C117.827 345.546 117.95 346.078 117.95 346.659C117.95 346.741 117.95 346.832 117.95 346.932C117.95 347.023 117.945 347.132 117.936 347.259H112.309V346.468H117.023C117.005 345.76 116.787 345.215 116.369 344.833C115.961 344.452 115.443 344.261 114.816 344.261C114.407 344.261 114.026 344.352 113.671 344.534C113.326 344.715 113.045 344.988 112.827 345.351C112.618 345.714 112.513 346.173 112.513 346.727V347.082C112.513 347.699 112.622 348.213 112.84 348.621C113.058 349.03 113.344 349.334 113.699 349.534C114.053 349.734 114.43 349.834 114.83 349.834C115.347 349.834 115.774 349.72 116.11 349.493C116.447 349.266 116.687 348.944 116.833 348.526H117.759C117.65 348.935 117.464 349.303 117.2 349.63C116.946 349.948 116.619 350.197 116.219 350.379C115.82 350.561 115.356 350.652 114.83 350.652ZM121.19 350.488L118.56 343.607H119.555L121.735 349.561L123.929 343.607H124.91L122.28 350.488H121.19ZM128.738 350.652C128.102 350.652 127.539 350.502 127.048 350.202C126.567 349.902 126.185 349.484 125.903 348.948C125.631 348.403 125.495 347.767 125.495 347.041C125.495 346.305 125.631 345.669 125.903 345.133C126.176 344.597 126.557 344.184 127.048 343.893C127.548 343.593 128.115 343.443 128.751 343.443C129.423 343.443 129.987 343.593 130.441 343.893C130.904 344.193 131.254 344.583 131.49 345.065C131.735 345.546 131.858 346.078 131.858 346.659C131.858 346.741 131.858 346.832 131.858 346.932C131.858 347.023 131.853 347.132 131.844 347.259H126.217V346.468H130.931C130.913 345.76 130.695 345.215 130.277 344.833C129.869 344.452 129.351 344.261 128.724 344.261C128.315 344.261 127.934 344.352 127.579 344.534C127.234 344.715 126.953 344.988 126.735 345.351C126.526 345.714 126.421 346.173 126.421 346.727V347.082C126.421 347.699 126.53 348.213 126.748 348.621C126.966 349.03 127.252 349.334 127.607 349.534C127.961 349.734 128.338 349.834 128.738 349.834C129.255 349.834 129.682 349.72 130.018 349.493C130.355 349.266 130.595 348.944 130.741 348.526H131.667C131.558 348.935 131.372 349.303 131.109 349.63C130.854 349.948 130.527 350.197 130.127 350.379C129.728 350.561 129.264 350.652 128.738 350.652ZM134.485 350.488L132.468 343.607H133.436L135.071 349.48H134.894L136.665 343.607H137.755L139.526 349.48H139.349L140.984 343.607H141.952L139.935 350.488H138.954L137.128 344.343H137.292L135.466 350.488H134.485ZM143.202 350.488V343.607H144.074L144.129 344.82C144.347 344.384 144.66 344.048 145.069 343.811C145.487 343.566 145.95 343.443 146.459 343.443C146.985 343.443 147.444 343.548 147.835 343.757C148.225 343.957 148.53 344.27 148.748 344.697C148.966 345.115 149.075 345.651 149.075 346.305V350.488H148.121V346.414C148.121 345.687 147.962 345.151 147.644 344.806C147.326 344.452 146.872 344.275 146.281 344.275C145.882 344.275 145.518 344.37 145.191 344.561C144.873 344.752 144.619 345.033 144.428 345.406C144.247 345.778 144.156 346.237 144.156 346.782V350.488H143.202ZM153.288 350.652C152.77 350.652 152.316 350.552 151.925 350.352C151.535 350.143 151.23 349.829 151.012 349.412C150.794 348.985 150.685 348.444 150.685 347.79V343.607H151.639V347.681C151.639 348.408 151.798 348.948 152.116 349.303C152.434 349.648 152.884 349.82 153.465 349.82C153.874 349.82 154.237 349.725 154.555 349.534C154.873 349.343 155.123 349.062 155.305 348.689C155.495 348.317 155.591 347.858 155.591 347.313V343.607H156.545V350.488H155.686L155.618 349.262C155.409 349.707 155.096 350.052 154.678 350.297C154.269 350.533 153.806 350.652 153.288 350.652ZM161.344 350.652C160.708 350.652 160.145 350.502 159.654 350.202C159.173 349.902 158.791 349.484 158.51 348.948C158.237 348.403 158.101 347.767 158.101 347.041C158.101 346.305 158.237 345.669 158.51 345.133C158.782 344.597 159.164 344.184 159.654 343.893C160.154 343.593 160.722 343.443 161.358 343.443C162.03 343.443 162.593 343.593 163.047 343.893C163.51 344.193 163.86 344.583 164.096 345.065C164.342 345.546 164.464 346.078 164.464 346.659C164.464 346.741 164.464 346.832 164.464 346.932C164.464 347.023 164.46 347.132 164.451 347.259H158.823V346.468H163.538C163.52 345.76 163.302 345.215 162.884 344.833C162.475 344.452 161.957 344.261 161.33 344.261C160.922 344.261 160.54 344.352 160.186 344.534C159.841 344.715 159.559 344.988 159.341 345.351C159.132 345.714 159.028 346.173 159.028 346.727V347.082C159.028 347.699 159.137 348.213 159.355 348.621C159.573 349.03 159.859 349.334 160.213 349.534C160.567 349.734 160.944 349.834 161.344 349.834C161.862 349.834 162.289 349.72 162.625 349.493C162.961 349.266 163.202 348.944 163.347 348.526H164.274C164.165 348.935 163.978 349.303 163.715 349.63C163.461 349.948 163.134 350.197 162.734 350.379C162.334 350.561 161.871 350.652 161.344 350.652Z" fill="#9B9B9B"/>
<g opacity="0.691243" filter="url(#filter1_f_3_827)">
<path fill-rule="evenodd" clip-rule="evenodd" d="M-44.2659 -34.0509H413.715L71.2483 180.422L-44.2659 254.53L-44.2659 -34.0509Z" fill="url(#paint0_linear_3_827)"/>
</g>
</g>
</g>
<defs>
<filter id="filter0_d_3_827" x="-21" y="-19" width="414.003" height="476.149" filterUnits="userSpaceOnUse" color-interpolation-filters="sRGB">
<feFlood flood-opacity="0" result="BackgroundImageFix"/>
<feColorMatrix in="SourceAlpha" type="matrix" values="0 0 0 0 0 0 0 0 0 0 0 0 0 0 0 0 0 0 127 0" result="hardAlpha"/>
<feOffset dy="2"/>
<feGaussianBlur stdDeviation="10.5"/>
<feColorMatrix type="matrix" values="0 0 0 0 0 0 0 0 0 0 0 0 0 0 0 0 0 0 0.5 0"/>
<feBlend mode="normal" in2="BackgroundImageFix" result="effect1_dropShadow_3_827"/>
<feBlend mode="normal" in="SourceGraphic" in2="effect1_dropShadow_3_827" result="shape"/>
</filter>
<filter id="filter1_f_3_827" x="-160.013" y="-149.798" width="689.475" height="520.075" filterUnits="userSpaceOnUse" color-interpolation-filters="sRGB">
<feFlood flood-opacity="0" result="BackgroundImageFix"/>
<feBlend mode="normal" in="SourceGraphic" in2="BackgroundImageFix" result="shape"/>
<feGaussianBlur stdDeviation="57.8736" result="effect1_foregroundBlur_3_827"/>
</filter>
<linearGradient id="paint0_linear_3_827" x1="-179.108" y1="-63.7131" x2="-217.426" y2="232.1" gradientUnits="userSpaceOnUse">
<stop stop-color="#0D8F51"/>
<stop offset="0.555913" stop-color="#BDA253"/>
<stop offset="1" stop-color="#B57542"/>
</linearGradient>
<clipPath id="clip0_3_827">
<rect width="372.003" height="434.149" fill="white"/>
</clipPath>
</defs>
</svg>
