<svg width="373" height="435" viewBox="0 0 373 435" fill="none" xmlns="http://www.w3.org/2000/svg">
<g clip-path="url(#clip0_3_781)">
<g filter="url(#filter0_d_3_781)">
<rect width="372.003" height="434.149" rx="25.5486" fill="#181818"/>
</g>
<mask id="mask0_3_781" style="mask-type:luminance" maskUnits="userSpaceOnUse" x="0" y="0" width="373" height="435">
<rect width="372.003" height="434.149" rx="25.5486" fill="white"/>
</mask>
<g mask="url(#mask0_3_781)">
<rect opacity="0.295666" x="32" y="309.012" width="50.2247" height="28.092" rx="14.046" fill="#8BF4C9"/>
<path d="M46.3835 327.116V318.174H47.2905L52.2214 325.634V318.174H53.1156V327.116H52.2214L47.2777 319.656V327.116H46.3835ZM55.0611 327.116V318.174H57.8587C58.557 318.174 59.1318 318.289 59.5832 318.519C60.0345 318.749 60.3667 319.06 60.5796 319.451C60.7925 319.835 60.8989 320.277 60.8989 320.78C60.8989 321.265 60.7925 321.704 60.5796 322.096C60.3667 322.487 60.0345 322.798 59.5832 323.028C59.1403 323.258 58.5655 323.373 57.8587 323.373H55.9553V327.116H55.0611ZM55.9553 322.619H57.8587C58.6166 322.619 59.1574 322.453 59.481 322.121C59.8131 321.789 59.9792 321.342 59.9792 320.78C59.9792 320.184 59.8131 319.728 59.481 319.413C59.1574 319.089 58.6166 318.928 57.8587 318.928H55.9553V322.619ZM65.1262 327.269C64.4705 327.269 63.8999 327.15 63.4145 326.912C62.9376 326.673 62.5714 326.341 62.3159 325.915C62.0604 325.481 61.9327 324.987 61.9327 324.433H62.8652C62.8652 324.808 62.9503 325.153 63.1207 325.468C63.291 325.783 63.5422 326.039 63.8743 326.234C64.2065 326.422 64.6238 326.516 65.1262 326.516C65.5691 326.516 65.9395 326.443 66.2376 326.298C66.5442 326.145 66.7784 325.945 66.9402 325.698C67.102 325.451 67.1829 325.17 67.1829 324.855C67.1829 324.48 67.102 324.178 66.9402 323.948C66.7869 323.718 66.574 323.531 66.3015 323.386C66.0289 323.241 65.7181 323.113 65.3689 323.003C65.0283 322.892 64.6706 322.777 64.2959 322.658C63.5976 322.419 63.0866 322.125 62.763 321.776C62.4394 321.427 62.2733 320.976 62.2648 320.422C62.2648 319.954 62.3712 319.541 62.5841 319.183C62.8056 318.825 63.1249 318.544 63.5422 318.34C63.9595 318.127 64.4534 318.021 65.024 318.021C65.5776 318.021 66.0587 318.127 66.4675 318.34C66.8848 318.544 67.2084 318.83 67.4384 319.196C67.6683 319.562 67.7833 319.988 67.7833 320.473H66.8635C66.8635 320.192 66.7911 319.924 66.6464 319.668C66.5101 319.404 66.3015 319.192 66.0204 319.03C65.7479 318.868 65.3987 318.787 64.9729 318.787C64.6238 318.787 64.3129 318.851 64.0404 318.979C63.7764 319.098 63.5678 319.277 63.4145 319.515C63.2612 319.745 63.1845 320.018 63.1845 320.333C63.1845 320.639 63.2527 320.891 63.3889 321.086C63.5337 321.282 63.7296 321.444 63.9765 321.572C64.232 321.7 64.5258 321.819 64.858 321.93C65.1901 322.032 65.5563 322.151 65.9566 322.287C66.3738 322.432 66.74 322.607 67.0551 322.811C67.3788 323.015 67.6342 323.279 67.8216 323.603C68.009 323.918 68.1026 324.318 68.1026 324.804C68.1026 325.221 67.9919 325.621 67.7705 326.005C67.5576 326.379 67.2297 326.686 66.7869 326.924C66.344 327.154 65.7905 327.269 65.1262 327.269Z" fill="white"/>
<rect opacity="0.295666" x="88" y="309" width="100" height="28" rx="14" fill="#DFB637"/>
<path d="M101.443 328V319.058H103.896C104.952 319.058 105.816 319.237 106.489 319.595C107.162 319.952 107.66 320.467 107.983 321.14C108.316 321.813 108.482 322.618 108.482 323.555C108.482 324.474 108.316 325.266 107.983 325.931C107.66 326.595 107.162 327.106 106.489 327.463C105.816 327.821 104.952 328 103.896 328H101.443ZM102.337 327.259H103.896C104.798 327.259 105.514 327.11 106.042 326.812C106.578 326.505 106.966 326.08 107.204 325.535C107.443 324.981 107.562 324.321 107.562 323.555C107.562 322.78 107.443 322.115 107.204 321.562C106.966 321 106.578 320.565 106.042 320.259C105.514 319.952 104.798 319.799 103.896 319.799H102.337V327.259ZM112.69 328.153C112.094 328.153 111.57 328.013 111.119 327.732C110.667 327.442 110.31 327.042 110.046 326.531C109.79 326.02 109.662 325.424 109.662 324.743C109.662 324.044 109.79 323.444 110.046 322.941C110.301 322.43 110.659 322.039 111.119 321.766C111.587 321.485 112.119 321.345 112.716 321.345C113.346 321.345 113.874 321.485 114.3 321.766C114.734 322.047 115.062 322.418 115.283 322.878C115.505 323.337 115.615 323.844 115.615 324.398C115.615 324.474 115.615 324.559 115.615 324.653C115.615 324.738 115.611 324.836 115.603 324.947H110.34V324.219H114.747C114.73 323.538 114.529 323.018 114.146 322.66C113.763 322.294 113.273 322.111 112.677 322.111C112.302 322.111 111.949 322.2 111.617 322.379C111.293 322.55 111.029 322.809 110.825 323.159C110.629 323.499 110.531 323.934 110.531 324.462V324.781C110.531 325.368 110.633 325.854 110.838 326.237C111.042 326.62 111.31 326.91 111.642 327.106C111.975 327.293 112.324 327.387 112.69 327.387C113.184 327.387 113.584 327.28 113.891 327.067C114.206 326.855 114.432 326.557 114.568 326.173H115.449C115.339 326.548 115.16 326.889 114.913 327.195C114.674 327.493 114.368 327.727 113.993 327.898C113.627 328.068 113.192 328.153 112.69 328.153ZM119.056 328.153C118.545 328.153 118.115 328.06 117.765 327.872C117.425 327.685 117.169 327.442 116.999 327.144C116.837 326.838 116.756 326.505 116.756 326.148C116.756 325.696 116.867 325.317 117.088 325.011C117.318 324.704 117.633 324.474 118.034 324.321C118.442 324.168 118.915 324.091 119.452 324.091H121.189C121.189 323.665 121.129 323.308 121.01 323.018C120.891 322.72 120.708 322.494 120.461 322.341C120.214 322.188 119.899 322.111 119.516 322.111C119.081 322.111 118.711 322.222 118.404 322.443C118.098 322.656 117.906 322.975 117.829 323.401H116.897C116.948 322.95 117.101 322.571 117.357 322.264C117.612 321.958 117.927 321.728 118.302 321.575C118.685 321.421 119.09 321.345 119.516 321.345C120.112 321.345 120.597 321.46 120.972 321.689C121.347 321.911 121.623 322.222 121.802 322.622C121.989 323.014 122.083 323.465 122.083 323.976V328H121.278L121.227 326.825C121.142 326.995 121.036 327.161 120.908 327.323C120.78 327.485 120.627 327.63 120.448 327.757C120.278 327.877 120.078 327.97 119.848 328.038C119.618 328.115 119.354 328.153 119.056 328.153ZM119.158 327.374C119.473 327.374 119.754 327.31 120.001 327.182C120.256 327.046 120.469 326.872 120.64 326.659C120.819 326.446 120.955 326.203 121.048 325.931C121.142 325.658 121.189 325.381 121.189 325.1V324.832H119.528C119.077 324.832 118.715 324.887 118.442 324.998C118.178 325.109 117.987 325.262 117.868 325.458C117.748 325.645 117.689 325.867 117.689 326.122C117.689 326.369 117.744 326.586 117.855 326.774C117.974 326.961 118.144 327.11 118.366 327.221C118.587 327.323 118.851 327.374 119.158 327.374ZM126.528 328.153C125.907 328.153 125.366 328.004 124.906 327.706C124.446 327.408 124.088 327.004 123.833 326.493C123.577 325.973 123.45 325.386 123.45 324.73C123.45 324.074 123.577 323.491 123.833 322.98C124.088 322.469 124.446 322.068 124.906 321.779C125.374 321.489 125.919 321.345 126.541 321.345C127.086 321.345 127.563 321.464 127.972 321.702C128.381 321.941 128.696 322.281 128.917 322.724V318.803H129.811V328H129.007L128.93 326.786C128.794 327.025 128.615 327.251 128.393 327.463C128.18 327.668 127.916 327.834 127.601 327.962C127.295 328.089 126.937 328.153 126.528 328.153ZM126.605 327.374C127.056 327.374 127.448 327.268 127.78 327.055C128.121 326.833 128.385 326.527 128.572 326.135C128.768 325.743 128.866 325.279 128.866 324.743C128.866 324.215 128.768 323.755 128.572 323.363C128.385 322.963 128.121 322.656 127.78 322.443C127.448 322.23 127.056 322.124 126.605 322.124C126.171 322.124 125.783 322.23 125.443 322.443C125.102 322.656 124.834 322.958 124.638 323.35C124.45 323.742 124.357 324.206 124.357 324.743C124.357 325.279 124.455 325.743 124.651 326.135C124.846 326.527 125.115 326.833 125.455 327.055C125.796 327.268 126.179 327.374 126.605 327.374ZM135.023 328V321.498H135.828L135.905 322.482C136.101 322.115 136.373 321.834 136.722 321.638C137.071 321.443 137.459 321.345 137.885 321.345C138.2 321.345 138.489 321.391 138.753 321.485C139.026 321.579 139.264 321.719 139.469 321.907C139.673 322.094 139.835 322.337 139.954 322.635C140.167 322.226 140.461 321.911 140.836 321.689C141.219 321.46 141.632 321.345 142.075 321.345C142.569 321.345 142.994 321.443 143.352 321.638C143.718 321.826 143.999 322.12 144.195 322.52C144.4 322.912 144.502 323.414 144.502 324.027V328H143.608V324.117C143.608 323.444 143.467 322.946 143.186 322.622C142.905 322.29 142.513 322.124 142.011 322.124C141.679 322.124 141.372 322.213 141.091 322.392C140.819 322.562 140.601 322.818 140.44 323.159C140.286 323.499 140.21 323.921 140.21 324.423V328H139.315V324.104C139.315 323.44 139.175 322.946 138.894 322.622C138.621 322.29 138.238 322.124 137.744 322.124C137.395 322.124 137.08 322.213 136.799 322.392C136.526 322.571 136.309 322.835 136.147 323.184C135.994 323.533 135.918 323.959 135.918 324.462V328H135.023ZM148.88 328.153C148.284 328.153 147.76 328.013 147.308 327.732C146.857 327.442 146.499 327.042 146.235 326.531C145.98 326.02 145.852 325.424 145.852 324.743C145.852 324.044 145.98 323.444 146.235 322.941C146.491 322.43 146.849 322.039 147.308 321.766C147.777 321.485 148.309 321.345 148.905 321.345C149.535 321.345 150.063 321.485 150.489 321.766C150.924 322.047 151.251 322.418 151.473 322.878C151.694 323.337 151.805 323.844 151.805 324.398C151.805 324.474 151.805 324.559 151.805 324.653C151.805 324.738 151.801 324.836 151.792 324.947H146.529V324.219H150.936C150.919 323.538 150.719 323.018 150.336 322.66C149.953 322.294 149.463 322.111 148.867 322.111C148.492 322.111 148.139 322.2 147.807 322.379C147.483 322.55 147.219 322.809 147.015 323.159C146.819 323.499 146.721 323.934 146.721 324.462V324.781C146.721 325.368 146.823 325.854 147.027 326.237C147.232 326.62 147.5 326.91 147.832 327.106C148.164 327.293 148.513 327.387 148.88 327.387C149.374 327.387 149.774 327.28 150.08 327.067C150.396 326.855 150.621 326.557 150.757 326.173H151.639C151.528 326.548 151.349 326.889 151.102 327.195C150.864 327.493 150.557 327.727 150.183 327.898C149.816 328.068 149.382 328.153 148.88 328.153ZM155.43 328C155.064 328 154.745 327.945 154.472 327.834C154.208 327.715 154.008 327.519 153.872 327.246C153.735 326.974 153.667 326.608 153.667 326.148V322.264H152.518V321.498H153.667L153.782 319.965H154.562V321.498H156.49V322.264H154.562V326.148C154.562 326.574 154.647 326.863 154.817 327.016C154.987 327.161 155.281 327.234 155.698 327.234H156.401V328H155.43ZM160.384 328.153C159.788 328.153 159.264 328.013 158.813 327.732C158.361 327.442 158.004 327.042 157.74 326.531C157.484 326.02 157.356 325.424 157.356 324.743C157.356 324.044 157.484 323.444 157.74 322.941C157.995 322.43 158.353 322.039 158.813 321.766C159.281 321.485 159.813 321.345 160.41 321.345C161.04 321.345 161.568 321.485 161.994 321.766C162.428 322.047 162.756 322.418 162.977 322.878C163.199 323.337 163.309 323.844 163.309 324.398C163.309 324.474 163.309 324.559 163.309 324.653C163.309 324.738 163.305 324.836 163.297 324.947H158.034V324.219H162.441C162.424 323.538 162.223 323.018 161.84 322.66C161.457 322.294 160.967 322.111 160.371 322.111C159.997 322.111 159.643 322.2 159.311 322.379C158.987 322.55 158.723 322.809 158.519 323.159C158.323 323.499 158.225 323.934 158.225 324.462V324.781C158.225 325.368 158.327 325.854 158.532 326.237C158.736 326.62 159.004 326.91 159.337 327.106C159.669 327.293 160.018 327.387 160.384 327.387C160.878 327.387 161.278 327.28 161.585 327.067C161.9 326.855 162.126 326.557 162.262 326.173H163.143C163.033 326.548 162.854 326.889 162.607 327.195C162.368 327.493 162.062 327.727 161.687 327.898C161.321 328.068 160.886 328.153 160.384 328.153ZM164.719 328V321.498H165.523L165.6 322.737C165.736 322.43 165.924 322.175 166.162 321.971C166.401 321.766 166.682 321.613 167.005 321.511C167.337 321.4 167.712 321.345 168.129 321.345V322.277H167.721C167.448 322.277 167.184 322.311 166.929 322.379C166.682 322.447 166.46 322.567 166.264 322.737C166.068 322.907 165.911 323.137 165.792 323.427C165.672 323.708 165.613 324.066 165.613 324.5V328H164.719ZM171.667 328.153C171.148 328.153 170.692 328.068 170.3 327.898C169.917 327.727 169.611 327.485 169.381 327.17C169.151 326.846 169.01 326.459 168.959 326.007H169.892C169.934 326.263 170.028 326.493 170.173 326.697C170.326 326.901 170.53 327.067 170.786 327.195C171.041 327.314 171.344 327.374 171.693 327.374C172.016 327.374 172.28 327.327 172.485 327.234C172.698 327.131 172.86 326.995 172.97 326.825C173.081 326.654 173.136 326.467 173.136 326.263C173.136 325.973 173.072 325.747 172.945 325.586C172.817 325.424 172.63 325.305 172.383 325.228C172.136 325.143 171.833 325.07 171.476 325.011C171.169 324.96 170.88 324.892 170.607 324.806C170.343 324.713 170.109 324.598 169.904 324.462C169.7 324.317 169.538 324.142 169.419 323.938C169.308 323.725 169.253 323.474 169.253 323.184C169.253 322.818 169.342 322.499 169.521 322.226C169.709 321.954 169.973 321.741 170.313 321.587C170.654 321.425 171.058 321.345 171.527 321.345C172.183 321.345 172.719 321.511 173.136 321.843C173.562 322.166 173.809 322.639 173.877 323.261H172.983C172.949 322.912 172.8 322.635 172.536 322.43C172.28 322.226 171.936 322.124 171.501 322.124C171.067 322.124 170.735 322.213 170.505 322.392C170.275 322.571 170.16 322.809 170.16 323.107C170.16 323.295 170.215 323.461 170.326 323.606C170.445 323.75 170.624 323.874 170.863 323.976C171.101 324.078 171.399 324.159 171.757 324.219C172.183 324.295 172.566 324.398 172.906 324.525C173.256 324.645 173.532 324.832 173.737 325.087C173.95 325.343 174.056 325.705 174.056 326.173C174.065 326.565 173.971 326.91 173.775 327.208C173.579 327.506 173.302 327.74 172.945 327.911C172.587 328.072 172.161 328.153 171.667 328.153Z" fill="white"/>
<rect opacity="0.295666" x="194" y="309" width="90" height="28" rx="14" fill="#8B8BF4"/>
<path d="M211.044 328.12C210.388 328.12 209.818 328.001 209.332 327.763C208.855 327.524 208.489 327.192 208.234 326.766C207.978 326.332 207.85 325.838 207.85 325.285H208.783C208.783 325.659 208.868 326.004 209.038 326.319C209.209 326.634 209.46 326.89 209.792 327.086C210.124 327.273 210.542 327.367 211.044 327.367C211.487 327.367 211.857 327.294 212.155 327.15C212.462 326.996 212.696 326.796 212.858 326.549C213.02 326.302 213.101 326.021 213.101 325.706C213.101 325.331 213.02 325.029 212.858 324.799C212.705 324.569 212.492 324.382 212.219 324.237C211.947 324.092 211.636 323.965 211.287 323.854C210.946 323.743 210.588 323.628 210.214 323.509C209.515 323.27 209.004 322.977 208.681 322.628C208.357 322.278 208.191 321.827 208.183 321.273C208.183 320.805 208.289 320.392 208.502 320.034C208.723 319.677 209.043 319.396 209.46 319.191C209.877 318.978 210.371 318.872 210.942 318.872C211.495 318.872 211.976 318.978 212.385 319.191C212.803 319.396 213.126 319.681 213.356 320.047C213.586 320.413 213.701 320.839 213.701 321.325H212.781C212.781 321.043 212.709 320.775 212.564 320.52C212.428 320.256 212.219 320.043 211.938 319.881C211.666 319.719 211.316 319.638 210.891 319.638C210.542 319.638 210.231 319.702 209.958 319.83C209.694 319.949 209.486 320.128 209.332 320.366C209.179 320.596 209.102 320.869 209.102 321.184C209.102 321.491 209.17 321.742 209.307 321.938C209.451 322.134 209.647 322.295 209.894 322.423C210.15 322.551 210.444 322.67 210.776 322.781C211.108 322.883 211.474 323.002 211.874 323.138C212.292 323.283 212.658 323.458 212.973 323.662C213.296 323.867 213.552 324.131 213.739 324.454C213.927 324.769 214.02 325.17 214.02 325.655C214.02 326.072 213.91 326.473 213.688 326.856C213.475 327.231 213.147 327.537 212.705 327.776C212.262 328.005 211.708 328.12 211.044 328.12ZM215.475 327.967V321.465H216.28L216.356 322.449C216.552 322.082 216.825 321.801 217.174 321.606C217.523 321.41 217.911 321.312 218.336 321.312C218.652 321.312 218.941 321.359 219.205 321.452C219.478 321.546 219.716 321.686 219.921 321.874C220.125 322.061 220.287 322.304 220.406 322.602C220.619 322.193 220.913 321.878 221.287 321.657C221.671 321.427 222.084 321.312 222.526 321.312C223.02 321.312 223.446 321.41 223.804 321.606C224.17 321.793 224.451 322.087 224.647 322.487C224.851 322.879 224.954 323.381 224.954 323.994V327.967H224.059V324.084C224.059 323.411 223.919 322.913 223.638 322.589C223.357 322.257 222.965 322.091 222.463 322.091C222.13 322.091 221.824 322.18 221.543 322.359C221.27 322.53 221.053 322.785 220.891 323.126C220.738 323.466 220.661 323.888 220.661 324.39V327.967H219.767V324.071C219.767 323.407 219.627 322.913 219.346 322.589C219.073 322.257 218.69 322.091 218.196 322.091C217.847 322.091 217.532 322.18 217.251 322.359C216.978 322.538 216.761 322.802 216.599 323.151C216.446 323.5 216.369 323.926 216.369 324.429V327.967H215.475ZM228.629 328.12C228.118 328.12 227.688 328.027 227.339 327.839C226.998 327.652 226.742 327.409 226.572 327.111C226.41 326.805 226.329 326.473 226.329 326.115C226.329 325.664 226.44 325.285 226.662 324.978C226.891 324.671 227.207 324.441 227.607 324.288C228.016 324.135 228.488 324.058 229.025 324.058H230.762C230.762 323.632 230.702 323.275 230.583 322.985C230.464 322.687 230.281 322.461 230.034 322.308C229.787 322.155 229.472 322.078 229.089 322.078C228.654 322.078 228.284 322.189 227.977 322.41C227.671 322.623 227.479 322.943 227.402 323.368H226.47C226.521 322.917 226.674 322.538 226.93 322.232C227.185 321.925 227.5 321.695 227.875 321.542C228.258 321.388 228.663 321.312 229.089 321.312C229.685 321.312 230.17 321.427 230.545 321.657C230.92 321.878 231.196 322.189 231.375 322.589C231.563 322.981 231.656 323.432 231.656 323.943V327.967H230.852L230.8 326.792C230.715 326.962 230.609 327.128 230.481 327.29C230.353 327.452 230.2 327.597 230.021 327.724C229.851 327.844 229.651 327.937 229.421 328.005C229.191 328.082 228.927 328.12 228.629 328.12ZM228.731 327.341C229.046 327.341 229.327 327.277 229.574 327.15C229.83 327.013 230.042 326.839 230.213 326.626C230.392 326.413 230.528 326.17 230.622 325.898C230.715 325.625 230.762 325.348 230.762 325.067V324.799H229.101C228.65 324.799 228.288 324.854 228.016 324.965C227.752 325.076 227.56 325.229 227.441 325.425C227.322 325.612 227.262 325.834 227.262 326.089C227.262 326.336 227.317 326.553 227.428 326.741C227.547 326.928 227.718 327.077 227.939 327.188C228.16 327.29 228.424 327.341 228.731 327.341ZM233.317 327.967V321.465H234.121L234.198 322.704C234.334 322.398 234.522 322.142 234.76 321.938C234.999 321.733 235.28 321.58 235.603 321.478C235.935 321.367 236.31 321.312 236.727 321.312V322.244H236.319C236.046 322.244 235.782 322.278 235.527 322.346C235.28 322.415 235.058 322.534 234.862 322.704C234.666 322.874 234.509 323.104 234.39 323.394C234.27 323.675 234.211 324.033 234.211 324.467V327.967H233.317ZM240.38 327.967C240.014 327.967 239.695 327.912 239.422 327.801C239.158 327.682 238.958 327.486 238.822 327.213C238.686 326.941 238.617 326.575 238.617 326.115V322.232H237.468V321.465H238.617L238.732 319.932H239.512V321.465H241.441V322.232H239.512V326.115C239.512 326.541 239.597 326.83 239.767 326.984C239.937 327.128 240.231 327.201 240.649 327.201H241.351V327.967H240.38ZM249.1 328.12C248.444 328.12 247.874 328.001 247.388 327.763C246.911 327.524 246.545 327.192 246.29 326.766C246.034 326.332 245.906 325.838 245.906 325.285H246.839C246.839 325.659 246.924 326.004 247.094 326.319C247.265 326.634 247.516 326.89 247.848 327.086C248.18 327.273 248.597 327.367 249.1 327.367C249.543 327.367 249.913 327.294 250.211 327.15C250.518 326.996 250.752 326.796 250.914 326.549C251.076 326.302 251.157 326.021 251.157 325.706C251.157 325.331 251.076 325.029 250.914 324.799C250.761 324.569 250.548 324.382 250.275 324.237C250.003 324.092 249.692 323.965 249.343 323.854C249.002 323.743 248.644 323.628 248.27 323.509C247.571 323.27 247.06 322.977 246.737 322.628C246.413 322.278 246.247 321.827 246.238 321.273C246.238 320.805 246.345 320.392 246.558 320.034C246.779 319.677 247.099 319.396 247.516 319.191C247.933 318.978 248.427 318.872 248.998 318.872C249.551 318.872 250.032 318.978 250.441 319.191C250.858 319.396 251.182 319.681 251.412 320.047C251.642 320.413 251.757 320.839 251.757 321.325H250.837C250.837 321.043 250.765 320.775 250.62 320.52C250.484 320.256 250.275 320.043 249.994 319.881C249.722 319.719 249.372 319.638 248.947 319.638C248.597 319.638 248.287 319.702 248.014 319.83C247.75 319.949 247.541 320.128 247.388 320.366C247.235 320.596 247.158 320.869 247.158 321.184C247.158 321.491 247.226 321.742 247.363 321.938C247.507 322.134 247.703 322.295 247.95 322.423C248.206 322.551 248.499 322.67 248.832 322.781C249.164 322.883 249.53 323.002 249.93 323.138C250.348 323.283 250.714 323.458 251.029 323.662C251.352 323.867 251.608 324.131 251.795 324.454C251.983 324.769 252.076 325.17 252.076 325.655C252.076 326.072 251.966 326.473 251.744 326.856C251.531 327.231 251.203 327.537 250.761 327.776C250.318 328.005 249.764 328.12 249.1 328.12ZM253.62 327.967V319.025H256.418C257.116 319.025 257.691 319.14 258.142 319.37C258.594 319.6 258.926 319.911 259.139 320.303C259.352 320.686 259.458 321.129 259.458 321.631C259.458 322.117 259.352 322.555 259.139 322.947C258.926 323.339 258.594 323.649 258.142 323.879C257.7 324.109 257.125 324.224 256.418 324.224H254.515V327.967H253.62ZM254.515 323.471H256.418C257.176 323.471 257.717 323.305 258.04 322.972C258.372 322.64 258.538 322.193 258.538 321.631C258.538 321.035 258.372 320.579 258.04 320.264C257.717 319.941 257.176 319.779 256.418 319.779H254.515V323.471ZM264.784 328.12C263.941 328.12 263.2 327.929 262.561 327.546C261.923 327.154 261.424 326.613 261.067 325.923C260.709 325.225 260.53 324.416 260.53 323.496C260.53 322.585 260.709 321.784 261.067 321.095C261.424 320.396 261.923 319.851 262.561 319.459C263.2 319.068 263.941 318.872 264.784 318.872C265.653 318.872 266.406 319.068 267.045 319.459C267.684 319.851 268.178 320.396 268.527 321.095C268.885 321.784 269.064 322.585 269.064 323.496C269.064 324.416 268.885 325.225 268.527 325.923C268.178 326.613 267.684 327.154 267.045 327.546C266.406 327.929 265.653 328.12 264.784 328.12ZM264.797 327.341C265.461 327.341 266.045 327.188 266.547 326.881C267.049 326.575 267.441 326.136 267.722 325.566C268.003 324.986 268.144 324.297 268.144 323.496C268.144 322.696 268.003 322.01 267.722 321.439C267.441 320.869 267.049 320.43 266.547 320.124C266.045 319.817 265.461 319.664 264.797 319.664C264.141 319.664 263.558 319.817 263.047 320.124C262.544 320.43 262.153 320.869 261.872 321.439C261.591 322.01 261.45 322.696 261.45 323.496C261.45 324.297 261.591 324.986 261.872 325.566C262.153 326.136 262.544 326.575 263.047 326.881C263.558 327.188 264.141 327.341 264.797 327.341Z" fill="white"/>
<rect opacity="0.295666" x="290" y="309" width="50" height="28" rx="14" fill="#F48B8B"/>
<path d="M311.079 328V319.799H308.396V319.058H314.655V319.799H311.973V328H311.079ZM315.99 328V319.058H321.33V319.799H316.884V323.146H320.717V323.887H316.884V328H315.99Z" fill="white"/>
<path d="M36.8048 386.111L31.5955 391.458C31.528 391.527 31.5317 391.639 31.6035 391.704L36.8048 396.39" stroke="white" stroke-width="1.70324" stroke-linecap="square"/>
<path d="M329.415 386.111L334.624 391.458C334.692 391.527 334.688 391.639 334.616 391.704L329.415 396.39" stroke="white" stroke-width="1.70324" stroke-linecap="square"/>
<g filter="url(#filter1_f_3_781)">
<path fill-rule="evenodd" clip-rule="evenodd" d="M-44.2659 -34.0509H413.715L71.2483 180.422L-44.2659 254.53L-44.2659 -34.0509Z" fill="url(#paint0_linear_3_781)"/>
</g>
<g opacity="0.597912" filter="url(#filter2_f_3_781)">
<path fill-rule="evenodd" clip-rule="evenodd" d="M-118.326 -61.2916H339.655L-2.81171 153.181L-118.326 227.29L-118.326 -61.2916Z" fill="url(#paint1_linear_3_781)"/>
</g>
</g>
</g>
<defs>
<filter id="filter0_d_3_781" x="-21" y="-19" width="414.003" height="476.149" filterUnits="userSpaceOnUse" color-interpolation-filters="sRGB">
<feFlood flood-opacity="0" result="BackgroundImageFix"/>
<feColorMatrix in="SourceAlpha" type="matrix" values="0 0 0 0 0 0 0 0 0 0 0 0 0 0 0 0 0 0 127 0" result="hardAlpha"/>
<feOffset dy="2"/>
<feGaussianBlur stdDeviation="10.5"/>
<feColorMatrix type="matrix" values="0 0 0 0 0 0 0 0 0 0 0 0 0 0 0 0 0 0 0.5 0"/>
<feBlend mode="normal" in2="BackgroundImageFix" result="effect1_dropShadow_3_781"/>
<feBlend mode="normal" in="SourceGraphic" in2="effect1_dropShadow_3_781" result="shape"/>
</filter>
<filter id="filter1_f_3_781" x="-160.013" y="-149.798" width="689.475" height="520.075" filterUnits="userSpaceOnUse" color-interpolation-filters="sRGB">
<feFlood flood-opacity="0" result="BackgroundImageFix"/>
<feBlend mode="normal" in="SourceGraphic" in2="BackgroundImageFix" result="shape"/>
<feGaussianBlur stdDeviation="57.8736" result="effect1_foregroundBlur_3_781"/>
</filter>
<filter id="filter2_f_3_781" x="-234.073" y="-177.039" width="689.475" height="520.075" filterUnits="userSpaceOnUse" color-interpolation-filters="sRGB">
<feFlood flood-opacity="0" result="BackgroundImageFix"/>
<feBlend mode="normal" in="SourceGraphic" in2="BackgroundImageFix" result="shape"/>
<feGaussianBlur stdDeviation="57.8736" result="effect1_foregroundBlur_3_781"/>
</filter>
<linearGradient id="paint0_linear_3_781" x1="-179.108" y1="-63.7131" x2="-217.426" y2="232.1" gradientUnits="userSpaceOnUse">
<stop offset="0.00912369" stop-color="#420D8F"/>
<stop offset="0.555913" stop-color="#BDA253"/>
<stop offset="1" stop-color="#B57542"/>
</linearGradient>
<linearGradient id="paint1_linear_3_781" x1="-255.072" y1="-90.3539" x2="-292.579" y2="205.174" gradientUnits="userSpaceOnUse">
<stop stop-color="#8F0D0D"/>
<stop offset="0.555913" stop-color="#9D53BD"/>
<stop offset="1" stop-color="#B54248"/>
</linearGradient>
<clipPath id="clip0_3_781">
<rect width="372.003" height="434.149" fill="white"/>
</clipPath>
</defs>
</svg>
